<?xml version="1.0" encoding="UTF-8" standalone="no"?>
<!-- Generator: Adobe Illustrator 21.0.0, SVG Export Plug-In . SVG Version: 6.00 Build 0)  -->

<svg
   xmlns:dc="http://purl.org/dc/elements/1.1/"
   xmlns:cc="http://creativecommons.org/ns#"
   xmlns:rdf="http://www.w3.org/1999/02/22-rdf-syntax-ns#"
   xmlns:svg="http://www.w3.org/2000/svg"
   xmlns="http://www.w3.org/2000/svg"
   xmlns:sodipodi="http://sodipodi.sourceforge.net/DTD/sodipodi-0.dtd"
   xmlns:inkscape="http://www.inkscape.org/namespaces/inkscape"
   version="1.1"
   id="Layer_1"
   x="0px"
   y="0px"
   viewBox="0 0 155.10001 55.099998"
   xml:space="preserve"
   sodipodi:docname="header-text-image-web.svg"
   width="155.10001"
   height="55.099998"
   inkscape:version="0.92.2 (5c3e80d, 2017-08-06)"><metadata
     id="metadata41"><rdf:RDF><cc:Work
         rdf:about=""><dc:format>image/svg+xml</dc:format><dc:type
           rdf:resource="http://purl.org/dc/dcmitype/StillImage" /><dc:title></dc:title></cc:Work></rdf:RDF></metadata><defs
     id="defs39" /><sodipodi:namedview
     pagecolor="#ffffff"
     bordercolor="#666666"
     borderopacity="1"
     objecttolerance="10"
     gridtolerance="10"
     guidetolerance="10"
     inkscape:pageopacity="0"
     inkscape:pageshadow="2"
     inkscape:window-width="1366"
     inkscape:window-height="705"
     id="namedview37"
     showgrid="false"
     inkscape:zoom="3.6645161"
     inkscape:cx="50.95899"
     inkscape:cy="42.511701"
     inkscape:window-x="-8"
     inkscape:window-y="-8"
     inkscape:window-maximized="1"
     inkscape:current-layer="Layer_1" /><style
     type="text/css"
     id="style2">
	.st0{fill:none;stroke:#BD8B13;stroke-width:0.1;stroke-miterlimit:10;}
	.st1{fill:#BD8B13;}
</style><g
     id="g58"><g
       transform="translate(0.05,0.05)"
       id="g34"><path
         style="fill:#bd8b13"
         inkscape:connector-curvature="0"
         id="path6"
         d="m 86.6,6 -0.1,-0.1 -1.8,-1.8 -2,2 2,2 z"
         class="st1" /><path
         style="fill:#bd8b13"
         inkscape:connector-curvature="0"
         id="path8"
         d="m 90.6,6 -0.3,-0.1 -1.8,-1.8 -2,2 2,2 z"
         class="st1" /><path
         style="fill:#bd8b13"
         inkscape:connector-curvature="0"
         id="path10"
         d="m 63.4,5.6 c 0,0.4 0.4,0.6 0.7,0.7 0.4,0.1 0.8,0.4 0.8,1 v 15.4 h 17 V 23 c 0,0.1 0,0.1 0,0.4 0,1.3 0.4,2.1 1.1,2.4 0,0 0.4,0.3 1,0.3 0.4,0 0.8,-0.1 1.3,-0.4 l 0.3,-0.1 -0.3,-0.3 C 84.9,24.9 84.6,23.7 84.6,23 v -0.1 h 6.3 V 8.7 c 0,0 -0.8,1.8 -3.9,4.1 0,0 0.1,0.6 0.7,0.9 0.8,0.4 0.7,0.9 0.7,0.9 v 5.7 H 84.5 V 20 19.7 c 0,-1.4 -0.4,-4.8 -4.2,-4.8 h -0.1 c -1.1,0 -2.2,0 -3.1,0 H 76.8 C 74.6,14.9 73.4,14.6 73,14 l -0.1,-0.3 -0.1,0.1 c -0.4,0.3 -0.7,0.8 -0.7,1.4 0,0.9 0.6,2 1.4,2 0.6,0 1.4,0 2.2,0 1.4,0 3,0 3,0 3.1,0 3.2,1.4 3.2,2 v 0.7 H 67.4 V 1.1 c 0,0 -1.7,2.3 -4.1,4 v 0.1 0.4 z"
         class="st1" /><path
         style="fill:#bd8b13"
         inkscape:connector-curvature="0"
         id="path12"
         d="m 53.5,25 c 0,0 -0.3,2.3 4.4,2.3 3.8,0 3.9,-2.4 3.9,-2.4 V 16.1 C 61.8,15.5 61.7,14 60.1,14 H 46.9 v -1 c 0,-0.3 0.1,-0.3 0.4,-0.4 C 48,12.2 48.1,11.7 48,11.5 46.5,10.6 45,8.6 45,8.6 v 7.7 h 13.2 0.1 c 0.4,0 1,0.1 1,1 v 6.2 c 0,0 0,1.3 -1.3,1.3 -2.1,0 -2,-1.1 -2,-1.1 V 20.3 H 45 V 23 h 8.7 v 2 z"
         class="st1" /><path
         style="fill:#bd8b13"
         inkscape:connector-curvature="0"
         id="path14"
         d="m 108.8,7.3 c 0,-0.7 0.4,-0.9 0.7,-1 0.3,-0.1 0.6,-0.3 0.7,-0.9 V 5.3 C 110.2,5 110.1,5 109.8,4.9 109.5,4.8 109.1,4.5 108.3,3.8 106.9,2.7 106.6,2.1 106.6,2.1 l -0.4,-0.7 v 21.5 h 2.7 C 108.8,22.8 108.8,7.7 108.8,7.3 Z"
         class="st1" /><path
         style="fill:#bd8b13"
         inkscape:connector-curvature="0"
         id="path16"
         d="M 99.8,25.6 98,27.4 96.2,25.6 98,23.8 Z m -6.1,0 4.4,4.4 4.4,-4.4 -2.7,-2.7 3.2,-3.4 V 1.4 c 0,0 -1.3,2.7 -3.4,4.1 v 0.1 c 0,0.4 0.3,0.6 0.6,0.7 0.3,0.1 0.6,0.4 0.6,1 0,0.6 0,10.9 0,10.9 L 98.1,21 95.4,18.2 c 0,-0.1 0,-10.5 0,-10.9 0,-0.7 0.3,-0.9 0.6,-1 C 96.3,6.2 96.4,6 96.6,5.6 V 5.5 C 94.6,4.1 93.2,1.4 93.2,1.4 v 18.4 l 3.2,3.3 z"
         class="st1" /><path
         style="fill:#bd8b13"
         inkscape:connector-curvature="0"
         id="path18"
         d="m 86,35.1 0.7,0.4 c 0.1,0.1 0.1,0.1 0.1,0.3 v 5.7 H 74.6 L 71.8,45 v -9.2 -0.1 l 0.1,-0.1 0.6,-0.4 v -0.6 h -6.2 v 0.6 l 0.6,0.4 0.1,0.1 v 16.9 0.3 L 66.9,53 66.3,53.4 V 54 h 6.2 V 53.4 L 71.8,53 71.7,52.9 v -7.7 l 0.7,0.1 0.8,-0.4 0.4,-0.1 c 0,0 0.1,0 0.3,0 h 12.8 v 6 l 4.6,-5 V 36 l 0.1,-0.1 0.7,-0.3 V 35 H 86 Z"
         class="st1" /><path
         style="fill:#bd8b13"
         inkscape:connector-curvature="0"
         id="path20"
         d="m 152.1,42 c -0.7,-2.3 -2.4,-4.1 -4.9,-5.5 -2.2,-1.3 -5.5,-1.8 -9.8,-1.8 h -16.7 v 0.6 l 0.7,0.4 v 2 h 15.9 c 3.2,0 5.6,0.4 7,1.3 2.2,1.3 3.4,3.1 3.4,5.2 0,1.1 -0.3,2.1 -0.8,3.1 -0.6,0.9 -1.5,1.7 -2.7,2.3 -1.5,0.9 -3.9,1.3 -7,1.3 h -8.3 V 39 h -4.5 v 13.5 0.1 l -0.1,0.1 -0.6,0.3 v 0.6 h 13.6 c 2.7,0 4.6,-0.1 6.2,-0.4 2,-0.4 3.8,-1.1 5.2,-2.1 1.5,-1 2.7,-2.3 3.2,-3.5 0.4,-1 0.7,-2 0.7,-3.1 -0.2,-0.9 -0.4,-1.8 -0.5,-2.5 z"
         class="st1" /><path
         style="fill:#bd8b13"
         inkscape:connector-curvature="0"
         id="path22"
         d="M 100.8,38.1 85.9,53.6 h 6.9 v -0.7 h -0.3 -0.3 -0.3 l 11.4,-12 z"
         class="st1" /><path
         style="fill:#bd8b13"
         inkscape:connector-curvature="0"
         id="path24"
         d="m 115.8,53.1 v 0.7 h 6.7 l -18,-19.1 -2.7,2.8 3,3.1 3.1,3.1 h -5.2 l -2.8,3 0.6,0.4 0.7,-0.4 h 0.1 c 0,0 0.3,0 0.4,0 h 8.7 l 6,6.5 c 0,0 -0.1,0.1 -0.6,0.1 h -0.1 v -0.2 z"
         class="st1" /><path
         style="fill:#bd8b13"
         inkscape:connector-curvature="0"
         id="path26"
         d="m 63.7,35.5 0.6,-0.4 v -0.6 h -6 v 0.6 l 0.6,0.4 0.3,0.3 v 16.6 0.3 l -0.1,0.1 -0.7,0.3 v 0.6 h 6 V 53.1 L 63.8,52.8 63.7,52.7 V 35.8 35.7 Z"
         class="st1" /><path
         style="fill:#bd8b13"
         inkscape:connector-curvature="0"
         id="path28"
         d="m 33.6,50 h -0.3 -0.7 l -0.8,0.4 c -0.1,0.1 -0.3,0.1 -0.4,0.1 H 17.7 c -3.1,0 -5.5,-0.4 -7,-1.3 -2.4,-1.3 -3.5,-3 -3.5,-5.4 0,-1 0.3,-2.1 1,-3 1.1,-1.7 2.8,-3 5.3,-3.4 0.7,-0.1 1.3,-0.1 1.7,-0.1 h 7 c 0.4,0 0.4,0.1 0.4,0.1 L 22.5,38 H 23 l 3,-3.7 h -8.4 c -2,0 -3.5,0 -4.5,0.1 -0.6,0 -1.1,0.1 -1.5,0.3 C 10.2,35 8.9,35.6 7.7,36.3 5.5,37.5 4,39 3.2,40.7 c -0.4,1 -0.7,2.1 -0.7,3.4 0,3.1 1.7,5.5 4.9,7.4 1.4,0.9 3.1,1.4 4.9,1.7 1.4,0.3 3.2,0.3 5.5,0.3 h 12.7 z"
         class="st1" /><path
         style="fill:#bd8b13"
         inkscape:connector-curvature="0"
         id="path30"
         d="m 26.7,45.4 3,-3.7 H 9.8 l -2,3 h 17.9 c 0.3,0 0.4,0.1 0.4,0.1 L 26,45.4 Z"
         class="st1" /><path
         style="fill:#bd8b13"
         inkscape:connector-curvature="0"
         id="path32"
         d="M 28.2,34.5 25.4,38 26,38.1 h 0.1 l 0.8,-0.4 c 0.3,-0.1 0.4,-0.3 0.7,-0.3 h 11 v 14.9 0.1 l -0.1,0.1 -0.6,0.4 v 0.6 h 6.2 V 52.9 L 43.5,52.5 43.4,52.4 V 52.3 37.5 h 9.7 c 0.4,0 0.4,0.1 0.4,0.1 v 0.6 h 0.6 l 3,-3.7 z"
         class="st1" /></g></g></svg>