<?xml version="1.0" encoding="UTF-8" standalone="no"?>
<svg
   version="1.1"
   viewBox="0 0 100 35"
   id="svg16"
   sodipodi:docname="OnlyFans_text.svg"
   width="100"
   height="35"
   inkscape:version="1.1 (c68e22c387, 2021-05-23)"
   xmlns:inkscape="http://www.inkscape.org/namespaces/inkscape"
   xmlns:sodipodi="http://sodipodi.sourceforge.net/DTD/sodipodi-0.dtd"
   xmlns="http://www.w3.org/2000/svg"
   xmlns:svg="http://www.w3.org/2000/svg"
   xmlns:rdf="http://www.w3.org/1999/02/22-rdf-syntax-ns#"
   xmlns:cc="http://creativecommons.org/ns#"
   xmlns:dc="http://purl.org/dc/elements/1.1/">
  <title
     id="title853">Qatar Airways logo</title>
  <metadata
     id="metadata22">
    <rdf:RDF>
      <cc:Work
         rdf:about="">
        <dc:format>image/svg+xml</dc:format>
        <dc:type
           rdf:resource="http://purl.org/dc/dcmitype/StillImage" />
        <dc:title>Qatar Airways logo</dc:title>
        <dc:date>1 dic 2021</dc:date>
        <cc:license
           rdf:resource="http://scripts.sil.org/OFL" />
      </cc:Work>
      <cc:License
         rdf:about="http://scripts.sil.org/OFL">
        <cc:permits
           rdf:resource="http://scripts.sil.org/pub/OFL/Reproduction" />
        <cc:permits
           rdf:resource="http://scripts.sil.org/pub/OFL/Distribution" />
        <cc:permits
           rdf:resource="http://scripts.sil.org/pub/OFL/Embedding" />
        <cc:permits
           rdf:resource="http://scripts.sil.org/pub/OFL/DerivativeWorks" />
        <cc:requires
           rdf:resource="http://scripts.sil.org/pub/OFL/Notice" />
        <cc:requires
           rdf:resource="http://scripts.sil.org/pub/OFL/Attribution" />
        <cc:requires
           rdf:resource="http://scripts.sil.org/pub/OFL/ShareAlike" />
        <cc:requires
           rdf:resource="http://scripts.sil.org/pub/OFL/DerivativeRenaming" />
        <cc:requires
           rdf:resource="http://scripts.sil.org/pub/OFL/BundlingWhenSelling" />
      </cc:License>
    </rdf:RDF>
  </metadata>
  <defs
     id="defs20" />
  <sodipodi:namedview
     pagecolor="#ffffff"
     bordercolor="#666666"
     borderopacity="1"
     objecttolerance="10"
     gridtolerance="10"
     guidetolerance="10"
     inkscape:pageopacity="0"
     inkscape:pageshadow="2"
     inkscape:window-width="1600"
     inkscape:window-height="878"
     id="namedview18"
     showgrid="false"
     inkscape:showpageshadow="false"
     inkscape:zoom="7.9999996"
     inkscape:cx="58.687503"
     inkscape:cy="8.7500004"
     inkscape:window-x="-8"
     inkscape:window-y="-8"
     inkscape:window-maximized="1"
     inkscape:current-layer="g851"
     inkscape:pagecheckerboard="1"
     height="35px" />
  <g
     id="g851"
     transform="matrix(0.19488325,0,0,0.19488325,11.238751,-50.963878)">
    <g
       id="g108"
       transform="matrix(0.49897532,0,0,0.49897532,85.175158,225.42598)">
      <path
         id="path105"
         style="fill:#505967;fill-opacity:1;fill-rule:nonzero;stroke:none;stroke-width:10.485"
         d="m -13.348829,330.73069 c -2.505922,8.58725 -8.593205,22.20519 -19.162114,45.89086 l -12.15672,27.00936 c 1.457419,-0.2097 2.938387,-0.62135 4.710357,-0.62135 1.677605,0 3.678484,0.41165 5.031052,0.62135 1.66712,-5.96599 5.023671,-14.66746 8.368396,-22.71997 4.194011,-0.22019 8.394115,-0.42087 12.577641,-0.42087 4.5085627,0 8.9104715,0.20079 13.42950851,0.42087 l 4.37962809,11.10444 4.4096991,11.61553 c 1.8872943,-0.10485 4.8216983,-0.62135 7.7470213,-0.62135 2.935808,0 6.605222,0.5165 8.177976,0.62135 C 19.445353,393.47092 12.523127,377.64524 8.5493006,368.53379 4.7746902,359.7473 -1.5115251,345.08467 -6.533854,330.73069 c -1.1533532,0.31455 -2.2044878,0.53117 -3.347356,0.53117 -1.258203,0 -2.314266,-0.21662 -3.467619,-0.53117 z m 259.500319,0 c -2.50592,8.58725 -8.59274,22.20519 -19.17214,45.89086 l -12.14669,27.00936 c 1.47839,-0.2097 2.9279,-0.62135 4.71035,-0.62135 1.67761,0 3.66754,0.41165 5.04108,0.62135 1.66712,-5.96599 5.03369,-14.66746 8.37842,-22.71997 4.18352,-0.22019 8.37407,-0.42087 12.5576,-0.42087 4.50856,0 8.90091,0.20079 13.40947,0.42087 l 4.39967,11.10444 4.39967,11.61553 c 1.89778,-0.10485 4.83172,-0.62135 7.75704,-0.62135 2.93581,0 6.60568,0.5165 8.16795,0.62135 -4.70777,-10.15999 -11.63,-25.98567 -15.61432,-35.09712 -3.7746,-8.78649 -10.05079,-23.44912 -15.07312,-37.8031 -1.15335,0.31455 -2.20402,0.53117 -3.35738,0.53117 -1.24772,0 -2.30424,-0.21662 -3.4576,-0.53117 z m 120.20419,0.21044 c -18.96741,0 -24.41364,11.73015 -24.41364,20.93602 0,8.70259 3.04946,14.05272 13.19898,18.55079 2.92534,1.2582 7.8684,3.13096 10.79374,4.39967 1.99217,0.82832 8.59889,3.75327 8.59889,12.03643 0,7.54925 -5.46799,13.10883 -13.73017,13.10883 -6.18616,0 -11.42304,-1.57192 -16.23572,-12.04649 h -1.47319 c -0.51379,5.02234 -0.62283,6.38428 -2.40528,11.826 3.77456,1.88728 10.58685,5.35177 19.583,5.35177 19.17713,0 26.6085,-12.2457 26.6085,-22.94041 0,-2.93581 -0.72808,-9.12263 -5.12127,-13.83043 -3.04064,-3.35519 -6.18832,-4.50126 -14.2513,-7.64679 -9.20588,-3.5649 -14.562,-5.66565 -14.562,-13.30924 0,-6.1757 4.08444,-11.31488 12.35714,-11.31488 6.59507,0 12.1679,3.15404 13.73017,9.12003 h 1.46323 c 0.94364,-3.97382 1.15013,-4.81417 3.24713,-9.95187 -5.13765,-2.29619 -9.74461,-4.28943 -17.38821,-4.28943 z M 32.291474,331.7729 c 1.048503,10.14952 1.05232,17.59767 1.05232,24.20321 0,17.90842 8.18e-4,35.19852 -1.152535,47.65474 2.317191,-0.0944 5.240344,-0.62134 7.536565,-0.62134 2.411557,0 4.924566,0.52698 7.336123,0.62134 -0.838802,-8.48241 -1.042317,-19.79606 -1.042317,-35.39781 0,-10.58988 -8.17e-4,-28.70118 1.152536,-36.46014 -2.516407,0.31455 -5.129172,0.64137 -7.446363,0.64137 -1.562269,0 -5.454669,-0.42118 -7.43635,-0.64137 z m 32.561562,0 c 0.723467,13.51523 0.72158,14.9782 0.72158,28.70308 0,20.20467 -0.103802,22.52032 -0.932014,43.15487 2.306706,-0.30406 4.825262,-0.62134 7.215859,-0.62134 2.631743,0 4.928436,0.41164 7.025431,0.62134 0,-2.71563 -0.420869,-16.23171 -0.420869,-19.27236 v -14.8727 h 2.515526 c 5.661916,7.95815 12.141077,17.1728 17.488442,25.45596 1.572749,2.40108 3.879229,6.28802 5.451979,8.6891 3.1455,-0.4194 4.40952,-0.62134 8.49869,-0.62134 3.76411,0 6.38513,0.31728 9.31045,0.62134 -6.59508,-8.26223 -9.43669,-11.93391 -17.6989,-23.5618 -1.57275,-2.20183 -3.87923,-5.66591 -5.45198,-7.85727 l -2.936458,-4.18918 c 9.541388,-1.78244 18.230068,-7.76521 18.230068,-19.38262 0,-4.40371 -1.67555,-8.69511 -4.81056,-11.7358 -4.49808,-4.28837 -9.641375,-5.13128 -16.446158,-5.13128 -2.411547,0 -14.572366,0.52121 -17.287989,0.52121 -5.347365,0 -8.071952,-0.30102 -10.473024,-0.52121 z m 54.870604,0 c 4.29886,11.31334 7.95227,21.35587 10.79371,29.32449 4.82312,13.62005 7.96118,23.06385 11.7358,34.56592 l 2.60572,7.96754 c 1.46791,-0.30406 3.13561,-0.62134 4.29945,-0.62134 1.15335,0 2.20677,0.20194 3.97874,0.62134 1.67761,-5.44172 3.67294,-12.14727 5.15133,-16.44615 4.06819,-11.94244 4.59449,-13.61482 9.94185,-28.48259 l 3.13689,-8.68911 c 1.15336,3.34473 3.14656,8.69173 4.28943,12.03644 1.15335,3.25036 6.49884,19.27529 7.75705,22.84024 1.6776,4.70775 2.09367,6.06476 5.97313,18.74117 0.94365,-0.10485 2.91665,-0.62134 4.49989,-0.62134 1.4679,0 2.61645,0.31728 4.1892,0.62134 3.98431,-12.45622 4.40143,-13.71144 10.26256,-30.47697 5.76676,-16.34619 9.32376,-25.66392 15.60429,-41.38098 -1.57275,0.4194 -3.12711,0.63141 -4.71035,0.63141 -1.99216,0 -3.65722,-0.31686 -4.81057,-0.63141 -3.77461,13.62006 -5.64844,20.22812 -8.6891,29.22427 -4.92796,14.65806 -5.5587,16.33476 -8.58888,24.30338 -3.35521,-9.00663 -6.61055,-18.12419 -9.65121,-27.33006 -1.66712,-5.03281 -8.07358,-25.9774 -8.16795,-26.19759 -1.45742,0.31455 -2.51312,0.63141 -4.61013,0.63141 -1.86633,0 -3.24754,-0.41122 -4.60011,-0.63141 -3.14551,12.78124 -14.25513,43.58107 -15.30363,46.41205 l -2.61576,6.80495 -1.99437,-5.86289 c -4.907,-14.5637 -11.72255,-34.99224 -14.97291,-47.35411 -2.62126,0.4194 -4.91454,0.63141 -7.3261,0.63141 -2.51641,0 -6.08097,-0.41122 -8.17797,-0.63141 z m 153.22675,0 c 5.44173,9.11157 14.34638,23.56576 19.68326,32.7821 l 6.18359,10.69353 c 0,6.50071 -0.3173,20.21451 -0.62137,28.38238 1.98167,-0.2097 4.91888,-0.62135 7.0054,-0.62135 2.41155,0 4.83436,0.41165 7.24592,0.62135 -0.42988,-9.74061 -0.75165,-15.39579 -0.75165,-24.20322 v -3.86847 c 0,-0.93317 0.62905,-2.08868 1.363,-3.35739 4.40371,-7.53872 8.49076,-15.40169 13.20903,-22.9404 1.56227,-2.51643 9.21049,-14.6575 10.7937,-17.48848 -1.16383,0.41941 -2.31313,0.64137 -4.39965,0.64137 -2.31719,0 -4.41579,-0.32681 -6.09339,-0.64137 -7.53874,16.55587 -9.2185,20.11021 -18.1098,35.40782 -8.90179,-15.6017 -12.8881,-23.87424 -18.34031,-35.40782 -3.03017,0.52426 -6.07293,0.64137 -8.57885,0.64137 -2.30671,0 -4.71991,-0.22196 -8.58888,-0.64137 z m -187.041067,5.13133 c 3.449564,0 6.921398,0.52876 9.731376,2.62578 3.66977,2.71563 4.399671,6.49024 4.399671,10.89396 0,6.79427 -3.866969,14.46179 -14.341513,14.46179 -2.726108,0 -5.243752,-0.22585 -7.235907,-0.33081 v -27.11957 c 1.572754,-0.11533 5.454207,-0.53117 7.446373,-0.53117 z m -99.358368,11.7358 9.8416255,25.76666 c -3.2398739,0.22018 -6.3808112,0.42087 -9.6311705,0.42087 -3.66976,0 -7.224185,-0.31613 -10.893945,-0.42087 z m 259.490295,0 9.86167,25.76666 c -3.25035,0.22018 -6.39036,0.42087 -9.65121,0.42087 -3.65927,0 -7.22464,-0.31613 -10.88392,-0.42087 z" />
      <path
         id="path133"
         style="fill:#5c0632;fill-opacity:1;fill-rule:nonzero;stroke:none;stroke-width:10.485"
         d="M 69.924202,77.113299 C 62.374979,102.89596 44.155994,143.75073 12.417811,214.76582 l -36.470152,81.07819 c 4.403713,-0.61862 8.804199,-1.88416 14.1410816,-1.88416 5.0223299,0 11.0144915,1.26553 15.0931699,1.88416 5.0223295,-17.91894 15.1006045,-44.00045 25.1452645,-68.19992 12.561065,-0.61861 25.131309,-1.24268 37.702861,-1.24268 13.5152,0 26.712748,0.62407 40.238434,1.24268 l 13.17896,33.32324 13.20904,34.87668 c 5.65143,-0.31456 14.46464,-1.88416 23.25109,-1.88416 8.81791,0 19.79515,1.5696 24.5239,1.88416 -14.1443,-30.47999 -34.89001,-77.93641 -46.84295,-105.2814 -11.31334,-26.39083 -30.16195,-70.39779 -45.239424,-113.449311 -3.460056,0.954138 -6.602517,1.58346 -10.052089,1.58346 -3.77461,0 -6.923228,-0.629311 -10.372795,-1.58346 z m 349.868918,0 c -7.52825,25.782661 -25.76774,66.637431 -57.51638,137.652521 l -36.4401,81.07819 c 4.39323,-0.61862 8.80421,-1.88416 14.14105,-1.88416 5.02234,0 10.99357,1.26553 15.09319,1.88416 5.03281,-17.91894 15.0701,-44.00045 25.1252,-68.19992 12.56111,-0.61861 25.1409,-1.24268 37.72295,-1.24268 13.51517,0 26.71364,0.62407 40.21839,1.24268 l 13.19897,33.32324 13.19904,34.87668 c 5.65143,-0.31456 14.46419,-1.88416 23.26111,-1.88416 8.79695,0 19.79564,1.5696 24.5139,1.88416 -14.14431,-30.47999 -34.89048,-77.93641 -46.83297,-105.2814 -11.31333,-26.39083 -30.17196,-70.39779 -45.24945,-113.449311 -3.46002,0.954138 -6.60252,1.58346 -10.05207,1.58346 -3.77461,0 -6.92275,-0.629311 -10.38283,-1.58346 z m -583.53246,0.64137 c -63.46588,0 -118.14967,35.190251 -118.14966,115.012761 0,16.9543 3.77547,49.02058 30.1663,75.73647 27.34494,27.65944 59.70636,31.73972 87.05131,31.73972 3.44958,0 6.90225,0.003 10.3728,-0.30061 l 71.958145,56.25363 c 9.426041,-6.60559 24.202429,-14.77459 34.886676,-19.49284 l -71.016071,-44.00672 c 43.670144,-15.39203 71.016071,-54.36952 71.016071,-107.47619 0,-75.40833 -57.516991,-107.46619 -116.285571,-107.46619 z m 333.18226,2.515505 c 0.95414,3.774621 1.57346,7.850959 1.57346,11.62558 0,3.774568 -0.61935,7.851368 -1.57346,11.615516 16.04209,-1.56227 46.20727,-2.19485 49.02774,-2.19485 h 15.72457 c 0.31455,12.2675 0.62134,23.2588 0.62134,34.88668 l 0.32074,87.67269 c 0,23.8954 -1.87823,48.09377 -3.14691,71.96817 11.31334,-1.24771 16.03007,-1.88416 21.36695,-1.88416 3.77462,0 13.82847,0.951 22.95044,1.88416 -0.95413,-8.78644 -2.20484,-19.17019 -2.20484,-43.04459 V 136.5238 c 0,-11.94243 0.30679,-23.88352 0.62134,-35.20738 21.68304,0 44.00994,0.31801 62.54747,2.19485 -0.94366,-5.022341 -1.57346,-7.844796 -1.57346,-11.304876 0,-2.516376 0.62984,-6.609794 1.57346,-11.93622 -30.16543,1.562269 -57.82767,1.874146 -83.91443,1.874146 -24.19944,0 -59.08587,-0.311824 -83.91442,-1.874146 z m 397.03259,0 c 2.19136,40.535146 2.1948,44.925056 2.1948,86.089186 0,60.66643 -0.32032,67.57051 -2.8262,129.4846 6.90962,-0.93316 14.45347,-1.88416 21.67764,-1.88416 7.85332,0 14.77578,1.26554 21.0563,1.88416 0,-8.17833 -1.25275,-48.70511 -1.25275,-57.82708 v -44.62811 h 7.54658 c 16.96476,23.88492 36.46423,51.54933 52.48537,76.37789 4.70768,7.23464 11.61808,18.8636 16.32587,26.0773 9.43652,-1.24771 13.20939,-1.88416 25.45591,-1.88416 11.31333,0 19.17461,0.951 27.97147,1.88416 -19.79566,-24.81804 -28.26765,-35.8217 -53.10668,-70.70541 -4.71826,-6.60554 -11.62767,-16.97672 -16.34594,-23.5718 l -8.78931,-12.55757 c 28.59266,-5.34736 54.68018,-23.25362 54.68018,-58.14779 0,-13.20067 -5.03528,-26.08634 -14.4718,-35.187377 -13.50474,-12.886069 -28.90361,-15.403839 -49.32845,-15.403839 -7.23464,0 -43.67564,1.563454 -51.85392,1.563454 -16.03165,0 -24.20536,-0.944806 -31.41907,-1.563454 z m -730.82619,13.499674 c 51.53391,0 73.842282,42.746152 73.842282,88.314112 0,26.07628 -3.149137,50.59849 -16.035242,70.40471 -12.8861,19.78523 -34.24011,31.72977 -57.50638,31.72977 -58.12901,0 -74.79438,-55.31845 -74.79438,-89.88756 0,-79.18295 42.4305,-100.561032 74.49372,-100.561032 z m 793.98498,1.904165 c 10.3697,0 20.73093,1.556723 29.23427,7.837257 10.98833,8.17833 13.18898,19.48069 13.18898,32.69183 0,20.42484 -11.62096,43.37536 -43.0446,43.37536 -8.17833,0 -15.72167,-0.6485 -21.68765,-0.94208 V 97.237488 c 4.70774,-0.304066 16.33255,-1.563454 22.309,-1.563454 z M 69.613518,130.86143 99.148427,208.17131 c -9.751079,0.63958 -19.172028,1.2628 -28.93359,1.2628 -10.988307,0 -21.673474,-0.94826 -32.661781,-1.2628 z m 349.868912,0 29.54496,77.30988 c -9.7406,0.63958 -19.17296,1.2628 -28.91357,1.2628 -11.00925,0 -21.68256,-0.94826 -32.69182,-1.2628 z M 660.7126,331.77295 c -4.66582,0 -5.93304,2.04913 -5.93304,5.80276 0,3.75363 1.66567,5.06113 5.93304,5.06113 4.30935,0 7.33613,-1.65351 7.33613,-5.06113 0,-3.38664 -1.99924,-5.80276 -7.33613,-5.80276 z m 16.5965,0 c -4.69732,0 -5.9431,2.04913 -5.9431,5.80276 0,3.75363 1.6023,5.06113 5.9431,5.06113 4.27789,0 7.28601,-1.65351 7.28601,-5.06113 0,-3.38664 -2.00156,-5.80276 -7.28601,-5.80276 z m -260.62281,0.98213 c -4.70775,0 -5.96311,2.05959 -5.96311,5.80275 0,3.77462 1.63282,5.09121 5.96311,5.09121 4.27789,0 7.29606,-1.68357 7.29606,-5.09121 0,-3.41815 -2.0011,-5.80275 -7.29606,-5.80275 z m 15.98516,0 c -4.72878,0 -5.97316,2.05959 -5.97316,5.80275 0,3.77462 1.63236,5.09121 5.97316,5.09121 4.31981,0 7.23587,-1.68357 7.23587,-5.09121 0,-3.41815 -1.97242,-5.80275 -7.23587,-5.80275 z m 118.80107,0.41091 c 0,0 -7.27081,5.10239 -12.6077,9.1601 -5.32642,4.05772 0,6.78494 0,6.78494 v 43.20494 h -15.24348 l -0.32074,-37.08149 c 0,0 -10.60938,7.75311 -13.65002,10.11221 -2.96726,2.34864 -1.31935,4.4398 2.00438,4.4398 0,0 -0.61138,27.37556 -0.61138,33.83436 0,6.5007 -5.38425,13.92936 -16.67665,10.55318 0,0 -3.57906,0.69232 -0.60131,3.39747 2.96726,2.69464 6.54746,4.75043 10.56319,4.75043 3.99481,0 18.63096,-2.76385 18.63096,-18.70108 H 714.8114 v -69.11191 c 0,0 -11.29225,7.45719 -13.61995,9.48081 -2.33812,2.02362 -1.65623,4.45549 1.35301,4.09902 v 44.2272 h -16.55642 v -40.15825 c 0,0 -3.39275,1.29231 -8.03763,3.34734 -4.60296,2.08653 -21.24673,8.85664 -21.24673,17.99959 v 10.5632 h 16.95728 v 8.24812 h -40.23845 c 0.0315,-1.93973 0.0702,-4.79621 0.0702,-8.97973 0,-13.1797 -11.22441,-20.35476 -21.21665,-20.35476 h -46.52227 c -8.14682,0 -12.07948,1.97503 -14.28137,4.22931 z m 185.2772,1.38308 c 0,0 -11.32371,7.47771 -13.6199,9.49087 -2.33817,2.02362 -1.65438,4.44455 1.31288,4.10902 v 55.55209 h 12.30702 z m -291.7512,6.06333 c 0,0 -13.66367,12.55413 -14.94284,14.22123 -1.3211,1.78245 3.24713,3.39747 3.24713,3.39747 l -0.7717,4.90078 c 0,0 -5.4409,2.81938 -12.04644,7.286 -6.56363,4.41424 -11.43516,10.05023 -11.43516,13.95067 0,3.91095 -1.65361,19.25235 -1.65361,19.25235 h 86.89095 v -41.07029 c 0,0 -7.84829,4.51496 -12.81818,8.93966 -4.93845,4.38272 1.01223,6.04326 1.01223,6.04326 v 14.78249 h -37.4824 z m 228.66255,27.78104 v 6.79494 h -7.96749 c 0,-4.37225 7.96749,-6.79494 7.96749,-6.79494 z m -112.5774,6.44417 h 50.84172 c 10.9778,0 9.28038,5.7773 9.28038,9.53094 0,2.01315 -0.0965,5.29475 -0.19041,7.94747 h -69.54283 v -12.22686 c 1.81391,-4.70779 4.8719,-5.25155 9.61114,-5.25155 z m -128.09151,1.03225 v 16.44615 h -12.91841 c 0,0 -1.73986,-7.95348 2.93643,-10.99417 4.69732,-3.08257 9.98198,-5.45198 9.98198,-5.45198 z m 23.88245,32.20076 c -4.67629,0 -5.96311,1.99858 -5.96311,5.76269 0,3.73269 1.65376,5.1012 5.96311,5.1012 4.27789,0 7.30606,-1.70404 7.30606,-5.1012 0,-3.42862 -1.96917,-5.76269 -7.30606,-5.76269 z m 16.6065,0 c -4.67633,0 -5.95305,1.99858 -5.95305,5.76269 0,3.73269 1.69614,5.1012 5.95305,5.1012 4.3408,0 7.32613,-1.70404 7.32613,-5.1012 0,-3.42862 -1.96826,-5.76269 -7.32613,-5.76269 z" />
    </g>
  </g>
</svg>
