<svg width="24" height="24" viewBox="0 0 25 24" fill="none" xmlns="http://www.w3.org/2000/svg">
<g id="ant-design:apple-filled">
<path id="Vector" d="M18.1852 12.5555C18.1758 10.957 18.9 9.75234 20.3625 8.86406C19.5445 7.69219 18.307 7.04766 16.6758 6.92344C15.1313 6.80156 13.4414 7.82344 12.8227 7.82344C12.1687 7.82344 10.6734 6.96563 9.49688 6.96563C7.06875 7.00313 4.48828 8.90156 4.48828 12.7641C4.48828 13.9055 4.69687 15.0844 5.11406 16.2984C5.67187 17.8969 7.68281 21.8133 9.78047 21.75C10.8773 21.7242 11.6531 20.9719 13.0805 20.9719C14.4656 20.9719 15.1828 21.75 16.4062 21.75C18.5227 21.7195 20.3414 18.1594 20.8711 16.5563C18.0328 15.218 18.1852 12.6375 18.1852 12.5555ZM15.7219 5.40703C16.9102 3.99609 16.8023 2.71172 16.7672 2.25C15.7172 2.31094 14.5031 2.96484 13.8117 3.76875C13.05 4.63125 12.6023 5.69766 12.6984 6.9C13.8328 6.98672 14.8687 6.40313 15.7219 5.40703Z" fill="black"/>
</g>
</svg>
