<svg width="16" height="13" viewBox="0 0 16 13" fill="none" xmlns="http://www.w3.org/2000/svg">
<path d="M0.125 10.7188C0.125 11.2409 0.332421 11.7417 0.701633 12.1109C1.07085 12.4801 1.57161 12.6875 2.09375 12.6875H13.9062C14.4284 12.6875 14.9292 12.4801 15.2984 12.1109C15.6676 11.7417 15.875 11.2409 15.875 10.7188V5.30469H0.125V10.7188ZM2.44531 8.04688C2.44531 7.76715 2.55643 7.49889 2.75422 7.3011C2.95202 7.10331 3.22028 6.99219 3.5 6.99219H5.1875C5.46722 6.99219 5.73548 7.10331 5.93328 7.3011C6.13107 7.49889 6.24219 7.76715 6.24219 8.04688V8.75C6.24219 9.02972 6.13107 9.29798 5.93328 9.49578C5.73548 9.69357 5.46722 9.80469 5.1875 9.80469H3.5C3.22028 9.80469 2.95202 9.69357 2.75422 9.49578C2.55643 9.29798 2.44531 9.02972 2.44531 8.75V8.04688ZM13.9062 0.3125H2.09375C1.57161 0.3125 1.07085 0.519921 0.701633 0.889134C0.332421 1.25835 0.125 1.75911 0.125 2.28125V3.19531H15.875V2.28125C15.875 1.75911 15.6676 1.25835 15.2984 0.889134C14.9292 0.519921 14.4284 0.3125 13.9062 0.3125V0.3125Z" fill="black"/>
</svg>
