<svg width="38" height="93" viewBox="0 0 38 93" fill="none" xmlns="http://www.w3.org/2000/svg">
<path opacity="0.25" d="M37 0.5L19 10.5M1 0.5L19 10.5M19 10.5V26.5" stroke="#112211" stroke-width="0.5"/>
<g opacity="0.2">
<mask id="path-3-inside-1_101_8484" fill="white">
<path d="M27.25 42.75H22V37.5C22 36.9033 21.7629 36.331 21.341 35.909C20.919 35.4871 20.3467 35.25 19.75 35.25H10.75C10.1533 35.25 9.58097 35.4871 9.15901 35.909C8.73705 36.331 8.5 36.9033 8.5 37.5L8.5 57C8.5 57.1989 8.57902 57.3897 8.71967 57.5303C8.86032 57.671 9.05109 57.75 9.25 57.75H14.125C14.2245 57.75 14.3198 57.7105 14.3902 57.6402C14.4605 57.5698 14.5 57.4745 14.5 57.375V54.0211C14.5 53.6175 14.8103 53.2711 15.2139 53.2509C15.3153 53.2461 15.4167 53.2618 15.5118 53.2972C15.6069 53.3327 15.6939 53.3871 15.7674 53.4571C15.8409 53.5271 15.8994 53.6114 15.9394 53.7047C15.9794 53.798 16 53.8985 16 54V57.375C16 57.4745 16.0395 57.5698 16.1098 57.6402C16.1802 57.7105 16.2755 57.75 16.375 57.75H28.75C28.9489 57.75 29.1397 57.671 29.2803 57.5303C29.421 57.3897 29.5 57.1989 29.5 57L29.5 45C29.5 44.4033 29.2629 43.831 28.841 43.409C28.419 42.9871 27.8467 42.75 27.25 42.75ZM11.5975 54.7439C11.4422 54.7642 11.2844 54.7354 11.1463 54.6615C11.0082 54.5875 10.8967 54.4722 10.8274 54.3317C10.7582 54.1911 10.7347 54.0325 10.7603 53.8779C10.7858 53.7234 10.8591 53.5807 10.9699 53.4699C11.0807 53.3591 11.2234 53.2858 11.3779 53.2603C11.5325 53.2347 11.6911 53.2582 11.8317 53.3274C11.9722 53.3967 12.0875 53.5082 12.1615 53.6463C12.2354 53.7844 12.2642 53.9422 12.2439 54.0975C12.2225 54.2614 12.1475 54.4137 12.0306 54.5306C11.9137 54.6475 11.7614 54.7225 11.5975 54.7439ZM11.5975 50.9939C11.4422 51.0142 11.2844 50.9854 11.1463 50.9115C11.0082 50.8375 10.8967 50.7222 10.8274 50.5817C10.7582 50.4411 10.7347 50.2825 10.7603 50.1279C10.7858 49.9734 10.8591 49.8307 10.9699 49.7199C11.0807 49.6091 11.2234 49.5358 11.3779 49.5103C11.5325 49.4847 11.6911 49.5082 11.8317 49.5774C11.9722 49.6467 12.0875 49.7582 12.1615 49.8963C12.2354 50.0344 12.2642 50.1922 12.2439 50.3475C12.2225 50.5114 12.1475 50.6637 12.0306 50.7806C11.9137 50.8975 11.7614 50.9725 11.5975 50.9939ZM11.5975 47.2439C11.4422 47.2642 11.2844 47.2354 11.1463 47.1615C11.0082 47.0875 10.8967 46.9722 10.8274 46.8317C10.7582 46.6911 10.7347 46.5325 10.7603 46.3779C10.7858 46.2234 10.8591 46.0807 10.9699 45.9699C11.0807 45.8591 11.2234 45.7858 11.3779 45.7603C11.5325 45.7347 11.6911 45.7582 11.8317 45.8274C11.9722 45.8967 12.0875 46.0082 12.1615 46.1463C12.2354 46.2844 12.2642 46.4422 12.2439 46.5975C12.2225 46.7614 12.1475 46.9137 12.0306 47.0306C11.9137 47.1475 11.7614 47.2225 11.5975 47.2439ZM11.5975 43.4939C11.4422 43.5142 11.2844 43.4854 11.1463 43.4115C11.0082 43.3375 10.8967 43.2222 10.8274 43.0817C10.7582 42.9411 10.7347 42.7825 10.7603 42.6279C10.7858 42.4734 10.8591 42.3307 10.9699 42.2199C11.0807 42.1091 11.2234 42.0358 11.3779 42.0103C11.5325 41.9847 11.6911 42.0082 11.8317 42.0774C11.9722 42.1467 12.0875 42.2582 12.1615 42.3963C12.2354 42.5344 12.2642 42.6922 12.2439 42.8475C12.2225 43.0114 12.1475 43.1637 12.0306 43.2806C11.9137 43.3975 11.7614 43.4725 11.5975 43.4939ZM11.5975 39.7439C11.4422 39.7642 11.2844 39.7354 11.1463 39.6615C11.0082 39.5875 10.8967 39.4722 10.8274 39.3317C10.7582 39.1911 10.7347 39.0325 10.7603 38.8779C10.7858 38.7234 10.8591 38.5807 10.9699 38.4699C11.0807 38.3591 11.2234 38.2858 11.3779 38.2603C11.5325 38.2347 11.6911 38.2582 11.8317 38.3274C11.9722 38.3967 12.0875 38.5082 12.1615 38.6463C12.2354 38.7844 12.2642 38.9422 12.2439 39.0975C12.2225 39.2614 12.1475 39.4137 12.0306 39.5306C11.9137 39.6475 11.7614 39.7225 11.5975 39.7439ZM15.3475 50.9939C15.1922 51.0142 15.0344 50.9854 14.8963 50.9115C14.7582 50.8375 14.6467 50.7222 14.5774 50.5817C14.5082 50.4411 14.4847 50.2825 14.5103 50.1279C14.5358 49.9734 14.6091 49.8307 14.7199 49.7199C14.8307 49.6091 14.9734 49.5358 15.1279 49.5103C15.2825 49.4847 15.4411 49.5082 15.5817 49.5774C15.7222 49.6467 15.8375 49.7582 15.9115 49.8963C15.9854 50.0344 16.0142 50.1922 15.9939 50.3475C15.9725 50.5114 15.8975 50.6637 15.7806 50.7806C15.6637 50.8975 15.5114 50.9725 15.3475 50.9939ZM15.3475 47.2439C15.1922 47.2642 15.0344 47.2354 14.8963 47.1615C14.7582 47.0875 14.6467 46.9722 14.5774 46.8317C14.5082 46.6911 14.4847 46.5325 14.5103 46.3779C14.5358 46.2234 14.6091 46.0807 14.7199 45.9699C14.8307 45.8591 14.9734 45.7858 15.1279 45.7603C15.2825 45.7347 15.4411 45.7582 15.5817 45.8274C15.7222 45.8967 15.8375 46.0082 15.9115 46.1463C15.9854 46.2844 16.0142 46.4422 15.9939 46.5975C15.9725 46.7614 15.8975 46.9137 15.7806 47.0306C15.6637 47.1475 15.5114 47.2225 15.3475 47.2439ZM15.3475 43.4939C15.1922 43.5142 15.0344 43.4854 14.8963 43.4115C14.7582 43.3375 14.6467 43.2222 14.5774 43.0817C14.5082 42.9411 14.4847 42.7825 14.5103 42.6279C14.5358 42.4734 14.6091 42.3307 14.7199 42.2199C14.8307 42.1091 14.9734 42.0358 15.1279 42.0103C15.2825 41.9847 15.4411 42.0082 15.5817 42.0774C15.7222 42.1467 15.8375 42.2582 15.9115 42.3963C15.9854 42.5344 16.0142 42.6922 15.9939 42.8475C15.9725 43.0114 15.8975 43.1637 15.7806 43.2806C15.6637 43.3975 15.5114 43.4725 15.3475 43.4939ZM15.3475 39.7439C15.1922 39.7642 15.0344 39.7354 14.8963 39.6615C14.7582 39.5875 14.6467 39.4722 14.5774 39.3317C14.5082 39.1911 14.4847 39.0325 14.5103 38.8779C14.5358 38.7234 14.6091 38.5807 14.7199 38.4699C14.8307 38.3591 14.9734 38.2858 15.1279 38.2603C15.2825 38.2347 15.4411 38.2582 15.5817 38.3274C15.7222 38.3967 15.8375 38.5082 15.9115 38.6463C15.9854 38.7844 16.0142 38.9422 15.9939 39.0975C15.9725 39.2614 15.8975 39.4137 15.7806 39.5306C15.6637 39.6475 15.5114 39.7225 15.3475 39.7439ZM19.0975 54.7439C18.9422 54.7642 18.7844 54.7354 18.6463 54.6615C18.5082 54.5875 18.3967 54.4722 18.3274 54.3317C18.2582 54.1911 18.2347 54.0325 18.2603 53.8779C18.2858 53.7234 18.3591 53.5807 18.4699 53.4699C18.5807 53.3591 18.7234 53.2858 18.8779 53.2603C19.0325 53.2347 19.1911 53.2582 19.3317 53.3274C19.4722 53.3967 19.5875 53.5082 19.6615 53.6463C19.7354 53.7844 19.7642 53.9422 19.7439 54.0975C19.7225 54.2614 19.6475 54.4137 19.5306 54.5306C19.4137 54.6475 19.2614 54.7225 19.0975 54.7439ZM19.0975 50.9939C18.9422 51.0142 18.7844 50.9854 18.6463 50.9115C18.5082 50.8375 18.3967 50.7222 18.3274 50.5817C18.2582 50.4411 18.2347 50.2825 18.2603 50.1279C18.2858 49.9734 18.3591 49.8307 18.4699 49.7199C18.5807 49.6091 18.7234 49.5358 18.8779 49.5103C19.0325 49.4847 19.1911 49.5082 19.3317 49.5774C19.4722 49.6467 19.5875 49.7582 19.6615 49.8963C19.7354 50.0344 19.7642 50.1922 19.7439 50.3475C19.7225 50.5114 19.6475 50.6637 19.5306 50.7806C19.4137 50.8975 19.2614 50.9725 19.0975 50.9939ZM19.0975 47.2439C18.9422 47.2642 18.7844 47.2354 18.6463 47.1615C18.5082 47.0875 18.3967 46.9722 18.3274 46.8317C18.2582 46.6911 18.2347 46.5325 18.2603 46.3779C18.2858 46.2234 18.3591 46.0807 18.4699 45.9699C18.5807 45.8591 18.7234 45.7858 18.8779 45.7603C19.0325 45.7347 19.1911 45.7582 19.3317 45.8274C19.4722 45.8967 19.5875 46.0082 19.6615 46.1463C19.7354 46.2844 19.7642 46.4422 19.7439 46.5975C19.7225 46.7614 19.6475 46.9137 19.5306 47.0306C19.4137 47.1475 19.2614 47.2225 19.0975 47.2439ZM19.0975 43.4939C18.9422 43.5142 18.7844 43.4854 18.6463 43.4115C18.5082 43.3375 18.3967 43.2222 18.3274 43.0817C18.2582 42.9411 18.2347 42.7825 18.2603 42.6279C18.2858 42.4734 18.3591 42.3307 18.4699 42.2199C18.5807 42.1091 18.7234 42.0358 18.8779 42.0103C19.0325 41.9847 19.1911 42.0082 19.3317 42.0774C19.4722 42.1467 19.5875 42.2582 19.6615 42.3963C19.7354 42.5344 19.7642 42.6922 19.7439 42.8475C19.7225 43.0114 19.6475 43.1637 19.5306 43.2806C19.4137 43.3975 19.2614 43.4725 19.0975 43.4939ZM19.0975 39.7439C18.9422 39.7642 18.7844 39.7354 18.6463 39.6615C18.5082 39.5875 18.3967 39.4722 18.3274 39.3317C18.2582 39.1911 18.2347 39.0325 18.2603 38.8779C18.2858 38.7234 18.3591 38.5807 18.4699 38.4699C18.5807 38.3591 18.7234 38.2858 18.8779 38.2603C19.0325 38.2347 19.1911 38.2582 19.3317 38.3274C19.4722 38.3967 19.5875 38.5082 19.6615 38.6463C19.7354 38.7844 19.7642 38.9422 19.7439 39.0975C19.7225 39.2614 19.6475 39.4137 19.5306 39.5306C19.4137 39.6475 19.2614 39.7225 19.0975 39.7439ZM27.8125 56.25H22L22 44.25H27.25C27.4489 44.25 27.6397 44.329 27.7803 44.4697C27.921 44.6103 28 44.8011 28 45L28 56.0625C28 56.1122 27.9802 56.1599 27.9451 56.1951C27.9099 56.2302 27.8622 56.25 27.8125 56.25Z"/>
</mask>
<path d="M27.25 42.75H22V37.5C22 36.9033 21.7629 36.331 21.341 35.909C20.919 35.4871 20.3467 35.25 19.75 35.25H10.75C10.1533 35.25 9.58097 35.4871 9.15901 35.909C8.73705 36.331 8.5 36.9033 8.5 37.5L8.5 57C8.5 57.1989 8.57902 57.3897 8.71967 57.5303C8.86032 57.671 9.05109 57.75 9.25 57.75H14.125C14.2245 57.75 14.3198 57.7105 14.3902 57.6402C14.4605 57.5698 14.5 57.4745 14.5 57.375V54.0211C14.5 53.6175 14.8103 53.2711 15.2139 53.2509C15.3153 53.2461 15.4167 53.2618 15.5118 53.2972C15.6069 53.3327 15.6939 53.3871 15.7674 53.4571C15.8409 53.5271 15.8994 53.6114 15.9394 53.7047C15.9794 53.798 16 53.8985 16 54V57.375C16 57.4745 16.0395 57.5698 16.1098 57.6402C16.1802 57.7105 16.2755 57.75 16.375 57.75H28.75C28.9489 57.75 29.1397 57.671 29.2803 57.5303C29.421 57.3897 29.5 57.1989 29.5 57L29.5 45C29.5 44.4033 29.2629 43.831 28.841 43.409C28.419 42.9871 27.8467 42.75 27.25 42.75ZM11.5975 54.7439C11.4422 54.7642 11.2844 54.7354 11.1463 54.6615C11.0082 54.5875 10.8967 54.4722 10.8274 54.3317C10.7582 54.1911 10.7347 54.0325 10.7603 53.8779C10.7858 53.7234 10.8591 53.5807 10.9699 53.4699C11.0807 53.3591 11.2234 53.2858 11.3779 53.2603C11.5325 53.2347 11.6911 53.2582 11.8317 53.3274C11.9722 53.3967 12.0875 53.5082 12.1615 53.6463C12.2354 53.7844 12.2642 53.9422 12.2439 54.0975C12.2225 54.2614 12.1475 54.4137 12.0306 54.5306C11.9137 54.6475 11.7614 54.7225 11.5975 54.7439ZM11.5975 50.9939C11.4422 51.0142 11.2844 50.9854 11.1463 50.9115C11.0082 50.8375 10.8967 50.7222 10.8274 50.5817C10.7582 50.4411 10.7347 50.2825 10.7603 50.1279C10.7858 49.9734 10.8591 49.8307 10.9699 49.7199C11.0807 49.6091 11.2234 49.5358 11.3779 49.5103C11.5325 49.4847 11.6911 49.5082 11.8317 49.5774C11.9722 49.6467 12.0875 49.7582 12.1615 49.8963C12.2354 50.0344 12.2642 50.1922 12.2439 50.3475C12.2225 50.5114 12.1475 50.6637 12.0306 50.7806C11.9137 50.8975 11.7614 50.9725 11.5975 50.9939ZM11.5975 47.2439C11.4422 47.2642 11.2844 47.2354 11.1463 47.1615C11.0082 47.0875 10.8967 46.9722 10.8274 46.8317C10.7582 46.6911 10.7347 46.5325 10.7603 46.3779C10.7858 46.2234 10.8591 46.0807 10.9699 45.9699C11.0807 45.8591 11.2234 45.7858 11.3779 45.7603C11.5325 45.7347 11.6911 45.7582 11.8317 45.8274C11.9722 45.8967 12.0875 46.0082 12.1615 46.1463C12.2354 46.2844 12.2642 46.4422 12.2439 46.5975C12.2225 46.7614 12.1475 46.9137 12.0306 47.0306C11.9137 47.1475 11.7614 47.2225 11.5975 47.2439ZM11.5975 43.4939C11.4422 43.5142 11.2844 43.4854 11.1463 43.4115C11.0082 43.3375 10.8967 43.2222 10.8274 43.0817C10.7582 42.9411 10.7347 42.7825 10.7603 42.6279C10.7858 42.4734 10.8591 42.3307 10.9699 42.2199C11.0807 42.1091 11.2234 42.0358 11.3779 42.0103C11.5325 41.9847 11.6911 42.0082 11.8317 42.0774C11.9722 42.1467 12.0875 42.2582 12.1615 42.3963C12.2354 42.5344 12.2642 42.6922 12.2439 42.8475C12.2225 43.0114 12.1475 43.1637 12.0306 43.2806C11.9137 43.3975 11.7614 43.4725 11.5975 43.4939ZM11.5975 39.7439C11.4422 39.7642 11.2844 39.7354 11.1463 39.6615C11.0082 39.5875 10.8967 39.4722 10.8274 39.3317C10.7582 39.1911 10.7347 39.0325 10.7603 38.8779C10.7858 38.7234 10.8591 38.5807 10.9699 38.4699C11.0807 38.3591 11.2234 38.2858 11.3779 38.2603C11.5325 38.2347 11.6911 38.2582 11.8317 38.3274C11.9722 38.3967 12.0875 38.5082 12.1615 38.6463C12.2354 38.7844 12.2642 38.9422 12.2439 39.0975C12.2225 39.2614 12.1475 39.4137 12.0306 39.5306C11.9137 39.6475 11.7614 39.7225 11.5975 39.7439ZM15.3475 50.9939C15.1922 51.0142 15.0344 50.9854 14.8963 50.9115C14.7582 50.8375 14.6467 50.7222 14.5774 50.5817C14.5082 50.4411 14.4847 50.2825 14.5103 50.1279C14.5358 49.9734 14.6091 49.8307 14.7199 49.7199C14.8307 49.6091 14.9734 49.5358 15.1279 49.5103C15.2825 49.4847 15.4411 49.5082 15.5817 49.5774C15.7222 49.6467 15.8375 49.7582 15.9115 49.8963C15.9854 50.0344 16.0142 50.1922 15.9939 50.3475C15.9725 50.5114 15.8975 50.6637 15.7806 50.7806C15.6637 50.8975 15.5114 50.9725 15.3475 50.9939ZM15.3475 47.2439C15.1922 47.2642 15.0344 47.2354 14.8963 47.1615C14.7582 47.0875 14.6467 46.9722 14.5774 46.8317C14.5082 46.6911 14.4847 46.5325 14.5103 46.3779C14.5358 46.2234 14.6091 46.0807 14.7199 45.9699C14.8307 45.8591 14.9734 45.7858 15.1279 45.7603C15.2825 45.7347 15.4411 45.7582 15.5817 45.8274C15.7222 45.8967 15.8375 46.0082 15.9115 46.1463C15.9854 46.2844 16.0142 46.4422 15.9939 46.5975C15.9725 46.7614 15.8975 46.9137 15.7806 47.0306C15.6637 47.1475 15.5114 47.2225 15.3475 47.2439ZM15.3475 43.4939C15.1922 43.5142 15.0344 43.4854 14.8963 43.4115C14.7582 43.3375 14.6467 43.2222 14.5774 43.0817C14.5082 42.9411 14.4847 42.7825 14.5103 42.6279C14.5358 42.4734 14.6091 42.3307 14.7199 42.2199C14.8307 42.1091 14.9734 42.0358 15.1279 42.0103C15.2825 41.9847 15.4411 42.0082 15.5817 42.0774C15.7222 42.1467 15.8375 42.2582 15.9115 42.3963C15.9854 42.5344 16.0142 42.6922 15.9939 42.8475C15.9725 43.0114 15.8975 43.1637 15.7806 43.2806C15.6637 43.3975 15.5114 43.4725 15.3475 43.4939ZM15.3475 39.7439C15.1922 39.7642 15.0344 39.7354 14.8963 39.6615C14.7582 39.5875 14.6467 39.4722 14.5774 39.3317C14.5082 39.1911 14.4847 39.0325 14.5103 38.8779C14.5358 38.7234 14.6091 38.5807 14.7199 38.4699C14.8307 38.3591 14.9734 38.2858 15.1279 38.2603C15.2825 38.2347 15.4411 38.2582 15.5817 38.3274C15.7222 38.3967 15.8375 38.5082 15.9115 38.6463C15.9854 38.7844 16.0142 38.9422 15.9939 39.0975C15.9725 39.2614 15.8975 39.4137 15.7806 39.5306C15.6637 39.6475 15.5114 39.7225 15.3475 39.7439ZM19.0975 54.7439C18.9422 54.7642 18.7844 54.7354 18.6463 54.6615C18.5082 54.5875 18.3967 54.4722 18.3274 54.3317C18.2582 54.1911 18.2347 54.0325 18.2603 53.8779C18.2858 53.7234 18.3591 53.5807 18.4699 53.4699C18.5807 53.3591 18.7234 53.2858 18.8779 53.2603C19.0325 53.2347 19.1911 53.2582 19.3317 53.3274C19.4722 53.3967 19.5875 53.5082 19.6615 53.6463C19.7354 53.7844 19.7642 53.9422 19.7439 54.0975C19.7225 54.2614 19.6475 54.4137 19.5306 54.5306C19.4137 54.6475 19.2614 54.7225 19.0975 54.7439ZM19.0975 50.9939C18.9422 51.0142 18.7844 50.9854 18.6463 50.9115C18.5082 50.8375 18.3967 50.7222 18.3274 50.5817C18.2582 50.4411 18.2347 50.2825 18.2603 50.1279C18.2858 49.9734 18.3591 49.8307 18.4699 49.7199C18.5807 49.6091 18.7234 49.5358 18.8779 49.5103C19.0325 49.4847 19.1911 49.5082 19.3317 49.5774C19.4722 49.6467 19.5875 49.7582 19.6615 49.8963C19.7354 50.0344 19.7642 50.1922 19.7439 50.3475C19.7225 50.5114 19.6475 50.6637 19.5306 50.7806C19.4137 50.8975 19.2614 50.9725 19.0975 50.9939ZM19.0975 47.2439C18.9422 47.2642 18.7844 47.2354 18.6463 47.1615C18.5082 47.0875 18.3967 46.9722 18.3274 46.8317C18.2582 46.6911 18.2347 46.5325 18.2603 46.3779C18.2858 46.2234 18.3591 46.0807 18.4699 45.9699C18.5807 45.8591 18.7234 45.7858 18.8779 45.7603C19.0325 45.7347 19.1911 45.7582 19.3317 45.8274C19.4722 45.8967 19.5875 46.0082 19.6615 46.1463C19.7354 46.2844 19.7642 46.4422 19.7439 46.5975C19.7225 46.7614 19.6475 46.9137 19.5306 47.0306C19.4137 47.1475 19.2614 47.2225 19.0975 47.2439ZM19.0975 43.4939C18.9422 43.5142 18.7844 43.4854 18.6463 43.4115C18.5082 43.3375 18.3967 43.2222 18.3274 43.0817C18.2582 42.9411 18.2347 42.7825 18.2603 42.6279C18.2858 42.4734 18.3591 42.3307 18.4699 42.2199C18.5807 42.1091 18.7234 42.0358 18.8779 42.0103C19.0325 41.9847 19.1911 42.0082 19.3317 42.0774C19.4722 42.1467 19.5875 42.2582 19.6615 42.3963C19.7354 42.5344 19.7642 42.6922 19.7439 42.8475C19.7225 43.0114 19.6475 43.1637 19.5306 43.2806C19.4137 43.3975 19.2614 43.4725 19.0975 43.4939ZM19.0975 39.7439C18.9422 39.7642 18.7844 39.7354 18.6463 39.6615C18.5082 39.5875 18.3967 39.4722 18.3274 39.3317C18.2582 39.1911 18.2347 39.0325 18.2603 38.8779C18.2858 38.7234 18.3591 38.5807 18.4699 38.4699C18.5807 38.3591 18.7234 38.2858 18.8779 38.2603C19.0325 38.2347 19.1911 38.2582 19.3317 38.3274C19.4722 38.3967 19.5875 38.5082 19.6615 38.6463C19.7354 38.7844 19.7642 38.9422 19.7439 39.0975C19.7225 39.2614 19.6475 39.4137 19.5306 39.5306C19.4137 39.6475 19.2614 39.7225 19.0975 39.7439ZM27.8125 56.25H22L22 44.25H27.25C27.4489 44.25 27.6397 44.329 27.7803 44.4697C27.921 44.6103 28 44.8011 28 45L28 56.0625C28 56.1122 27.9802 56.1599 27.9451 56.1951C27.9099 56.2302 27.8622 56.25 27.8125 56.25Z" fill="#112211" stroke="#112211" stroke-width="0.09375" mask="url(#path-3-inside-1_101_8484)"/>
</g>
<path d="M25.75 53.25C25.6017 53.25 25.4567 53.294 25.3333 53.3764C25.21 53.4588 25.1139 53.5759 25.0571 53.713C25.0003 53.85 24.9855 54.0008 25.0144 54.1463C25.0434 54.2918 25.1148 54.4254 25.2197 54.5303C25.3246 54.6352 25.4582 54.7066 25.6037 54.7356C25.7492 54.7645 25.9 54.7497 26.037 54.6929C26.1741 54.6361 26.2912 54.54 26.3736 54.4167C26.456 54.2933 26.5 54.1483 26.5 54C26.5 53.8011 26.421 53.6103 26.2803 53.4697C26.1397 53.329 25.9489 53.25 25.75 53.25ZM25.75 49.5C25.6017 49.5 25.4567 49.544 25.3333 49.6264C25.21 49.7088 25.1139 49.8259 25.0571 49.963C25.0003 50.1 24.9855 50.2508 25.0144 50.3963C25.0434 50.5418 25.1148 50.6754 25.2197 50.7803C25.3246 50.8852 25.4582 50.9567 25.6037 50.9856C25.7492 51.0145 25.9 50.9997 26.037 50.9429C26.1741 50.8861 26.2912 50.79 26.3736 50.6667C26.456 50.5433 26.5 50.3983 26.5 50.25C26.5 50.0511 26.421 49.8603 26.2803 49.7197C26.1397 49.579 25.9489 49.5 25.75 49.5ZM25.75 45.75C25.6017 45.75 25.4567 45.794 25.3333 45.8764C25.21 45.9588 25.1139 46.0759 25.0571 46.213C25.0003 46.35 24.9855 46.5008 25.0144 46.6463C25.0434 46.7918 25.1148 46.9254 25.2197 47.0303C25.3246 47.1352 25.4582 47.2067 25.6037 47.2356C25.7492 47.2645 25.9 47.2497 26.037 47.1929C26.1741 47.1361 26.2912 47.04 26.3736 46.9167C26.456 46.7933 26.5 46.6483 26.5 46.5C26.5 46.3011 26.421 46.1103 26.2803 45.9697C26.1397 45.829 25.9489 45.75 25.75 45.75ZM22.75 53.25C22.6017 53.25 22.4567 53.294 22.3333 53.3764C22.21 53.4588 22.1139 53.5759 22.0571 53.713C22.0003 53.85 21.9855 54.0008 22.0144 54.1463C22.0434 54.2918 22.1148 54.4254 22.2197 54.5303C22.3246 54.6352 22.4582 54.7066 22.6037 54.7356C22.7492 54.7645 22.9 54.7497 23.037 54.6929C23.1741 54.6361 23.2912 54.54 23.3736 54.4167C23.456 54.2933 23.5 54.1483 23.5 54C23.5 53.8011 23.421 53.6103 23.2803 53.4697C23.1397 53.329 22.9489 53.25 22.75 53.25ZM22.75 49.5C22.6017 49.5 22.4567 49.544 22.3333 49.6264C22.21 49.7088 22.1139 49.8259 22.0571 49.963C22.0003 50.1 21.9855 50.2508 22.0144 50.3963C22.0434 50.5418 22.1148 50.6754 22.2197 50.7803C22.3246 50.8852 22.4582 50.9567 22.6037 50.9856C22.7492 51.0145 22.9 50.9997 23.037 50.9429C23.1741 50.8861 23.2912 50.79 23.3736 50.6667C23.456 50.5433 23.5 50.3983 23.5 50.25C23.5 50.0511 23.421 49.8603 23.2803 49.7197C23.1397 49.579 22.9489 49.5 22.75 49.5ZM22.75 45.75C22.6017 45.75 22.4567 45.794 22.3333 45.8764C22.21 45.9588 22.1139 46.0759 22.0571 46.213C22.0003 46.35 21.9855 46.5008 22.0144 46.6463C22.0434 46.7918 22.1148 46.9254 22.2197 47.0303C22.3246 47.1352 22.4582 47.2067 22.6037 47.2356C22.7492 47.2645 22.9 47.2497 23.037 47.1929C23.1741 47.1361 23.2912 47.04 23.3736 46.9167C23.456 46.7933 23.5 46.6483 23.5 46.5C23.5 46.3011 23.421 46.1103 23.2803 45.9697C23.1397 45.829 22.9489 45.75 22.75 45.75Z" fill="#BFCCC5"/>
<path opacity="0.25" d="M37 92.5L19 82.5M1 92.5L19 82.5M19 82.5V66.5" stroke="#112211" stroke-width="0.5"/>
</svg>
