<svg xmlns="http://www.w3.org/2000/svg" width="22" height="22" viewBox="0 0 22 22" fill="none">
  <path d="M15.5222 2.75C15.8302 2.75 16.1255 2.87233 16.3433 3.09008C16.561 3.30783 16.6833 3.60317 16.6833 3.91111V19.0056H18.425C18.579 19.0056 18.7266 19.0667 18.8355 19.1756C18.9444 19.2845 19.0056 19.4321 19.0056 19.5861C19.0056 19.7401 18.9444 19.8878 18.8355 19.9966C18.7266 20.1055 18.579 20.1667 18.425 20.1667H3.33056C3.17658 20.1667 3.02892 20.1055 2.92004 19.9966C2.81117 19.8878 2.75 19.7401 2.75 19.5861C2.75 19.4321 2.81117 19.2845 2.92004 19.1756C3.02892 19.0667 3.17658 19.0056 3.33056 19.0056H5.07222V3.91111C5.07222 3.60317 5.19455 3.30783 5.4123 3.09008C5.63005 2.87233 5.92539 2.75 6.23333 2.75H15.5222ZM13.2 13.2C13.5079 13.2 13.8033 13.0777 14.021 12.8599C14.2388 12.6422 14.3611 12.3468 14.3611 12.0389C14.3611 11.7309 14.2388 11.4356 14.021 11.2179C13.8033 11.0001 13.5079 10.8778 13.2 10.8778C12.8921 10.8778 12.5967 11.0001 12.379 11.2179C12.1612 11.4356 12.0389 11.7309 12.0389 12.0389C12.0389 12.3468 12.1612 12.6422 12.379 12.8599C12.5967 13.0777 12.8921 13.2 13.2 13.2Z" fill="#8DD3BB"/>
</svg>