<svg width="38" height="93" viewBox="0 0 38 93" fill="none" xmlns="http://www.w3.org/2000/svg">
<path opacity="0.25" d="M37 0.5L19 10.5M1 0.5L19 10.5M19 10.5V26.5" stroke="#112211" stroke-width="0.5"/>
<path opacity="0.2" d="M22.4331 35.2926L19.0839 36.2226C19.0586 36.2295 19.0337 36.2378 19.0094 36.2475L22.4331 35.2926ZM22.4331 35.2926C22.7898 35.1919 23.0392 35.302 23.1859 35.4126M22.4331 35.2926L23.1859 35.4126M23.1859 35.4126C23.2845 35.4869 23.3643 35.5833 23.4188 35.694C23.4734 35.8047 23.5012 35.9267 23.5 36.0501V36.937C23.5 37.4165 23.2848 37.882 22.9375 38.1558L20.9664 39.7762L23.1859 35.4126ZM28.7266 41.9995L28.7266 43.2607C28.7231 43.4331 28.6808 43.6024 28.6029 43.7563C28.525 43.9101 28.4134 44.0445 28.2764 44.1493L28.2764 44.1493L28.2757 44.1499L21.1507 50.0116L21.1419 50.0188L21.1422 50.0303L21.2134 52.7383L21.2135 52.7389C21.2242 52.9364 21.228 53.4852 21.228 53.6123C21.2273 54.9055 21.0169 55.9354 20.633 56.6411C20.2496 57.3458 19.6941 57.7261 19 57.7261C18.7813 57.7261 18.4693 57.6824 18.1474 57.4926C17.8257 57.3028 17.4925 56.9662 17.2327 56.3774L17.2327 56.3774C16.9251 55.6816 16.7687 54.7515 16.7687 53.6114C16.7687 53.4856 16.7725 52.9383 16.7833 52.738L16.7833 52.7373L16.8555 50.0298L16.8558 50.0184L16.8469 50.0111L9.72195 44.1349L9.72132 44.1344C9.58495 44.0295 9.47389 43.8952 9.39637 43.7416C9.31887 43.588 9.27686 43.419 9.27344 43.2471V41.9995C9.27348 41.8781 9.30397 41.7586 9.36212 41.6519C9.42027 41.5453 9.50423 41.4549 9.60631 41.3891C9.7084 41.3233 9.82536 41.2841 9.94649 41.2752C10.0676 41.2662 10.1891 41.2878 10.2997 41.3379L16.9677 44.3595L17 44.3741L17.0008 44.3386L17.1016 39.8016L17.1018 39.7902L17.093 39.783L15.0882 38.1283L15.0879 38.1281C14.8904 37.971 14.7502 37.8317 14.6588 37.6535C14.5674 37.4754 14.5234 37.2561 14.5234 36.937L14.5234 36.097L14.5234 36.0963C14.5193 35.967 14.5463 35.8387 14.6023 35.7221C14.6583 35.6056 14.7415 35.5043 14.8449 35.4268C14.9906 35.3187 15.2381 35.2116 15.5935 35.3161L15.5939 35.3162L18.9219 36.2452C18.9219 36.2452 18.9219 36.2452 18.9219 36.2452C18.946 36.252 18.9701 36.2602 18.9939 36.2694L18.9938 36.2697L18.9977 36.2705C19.0031 36.2715 19.0086 36.2715 19.014 36.2705L19.0141 36.2708L19.018 36.2693C19.0416 36.2599 19.0656 36.2519 19.09 36.2453L19.0902 36.2452L22.4394 35.3152L22.4395 35.3152C22.7879 35.2168 23.0298 35.3243 23.1718 35.4314L23.1718 35.4314C23.2675 35.5034 23.3449 35.597 23.3978 35.7044C23.4507 35.8118 23.4777 35.9302 23.4766 36.0499V36.0501V36.937C23.4766 37.41 23.2642 37.8685 22.923 38.1374L22.923 38.1374L22.9226 38.1377L20.9515 39.7581L20.9428 39.7653L20.943 39.7766L21.0105 44.3385L21.011 44.3742L21.0436 44.3595L27.6998 41.3388C27.8104 41.2887 27.9318 41.267 28.053 41.2759C28.1741 41.2847 28.2911 41.3238 28.3932 41.3895C28.4953 41.4552 28.5793 41.5455 28.6376 41.6521C28.6958 41.7586 28.7264 41.8781 28.7266 41.9995Z" fill="#112211" stroke="#112211" stroke-width="0.046875"/>
<path opacity="0.25" d="M37 92.5L19 82.5M1 92.5L19 82.5M19 82.5V66.5" stroke="#112211" stroke-width="0.5"/>
</svg>
