<svg
              xmlns="http://www.w3.org/2000/svg"
              width="20"
              height="21"
              viewBox="0 0 20 21"
              fill="none"
            >
              <path
                d="M9.49787 7.66546C7.93707 7.66546 6.66333 8.9392 6.66333 10.5C6.66333 12.0608 7.93707 13.3345 9.49787 13.3345C11.0587 13.3345 12.3324 12.0608 12.3324 10.5C12.3324 8.9392 11.0587 7.66546 9.49787 7.66546ZM17.9994 10.5C17.9994 9.32621 18.01 8.16305 17.9441 6.99138C17.8782 5.63046 17.5677 4.42264 16.5725 3.42747C15.5752 2.43017 14.3695 2.12184 13.0086 2.05592C11.8348 1.99 10.6717 2.00063 9.5 2.00063C8.32621 2.00063 7.16305 1.99 5.99138 2.05592C4.63046 2.12184 3.42264 2.4323 2.42747 3.42747C1.43017 4.42477 1.12184 5.63046 1.05592 6.99138C0.99 8.16517 1.00063 9.32833 1.00063 10.5C1.00063 11.6717 0.99 12.837 1.05592 14.0086C1.12184 15.3695 1.4323 16.5774 2.42747 17.5725C3.42477 18.5698 4.63046 18.8782 5.99138 18.9441C7.16517 19.01 8.32833 18.9994 9.5 18.9994C10.6738 18.9994 11.837 19.01 13.0086 18.9441C14.3695 18.8782 15.5774 18.5677 16.5725 17.5725C17.5698 16.5752 17.8782 15.3695 17.9441 14.0086C18.0121 12.837 17.9994 11.6738 17.9994 10.5ZM9.49787 14.8613C7.08437 14.8613 5.13655 12.9135 5.13655 10.5C5.13655 8.08649 7.08437 6.13868 9.49787 6.13868C11.9114 6.13868 13.8592 8.08649 13.8592 10.5C13.8592 12.9135 11.9114 14.8613 9.49787 14.8613ZM14.0378 6.97862C13.4743 6.97862 13.0193 6.52356 13.0193 5.96006C13.0193 5.39655 13.4743 4.94149 14.0378 4.94149C14.6013 4.94149 15.0564 5.39655 15.0564 5.96006C15.0565 6.09386 15.0303 6.22639 14.9792 6.35004C14.9281 6.4737 14.853 6.58605 14.7584 6.68067C14.6638 6.77528 14.5515 6.8503 14.4278 6.90143C14.3041 6.95256 14.1716 6.97879 14.0378 6.97862Z"
                fill="currentColor"
              />
            </svg>