<svg width="233" height="212" viewBox="0 0 233 212" fill="none" xmlns="http://www.w3.org/2000/svg">
<path fill-rule="evenodd" clip-rule="evenodd" d="M183.982 67.9131C171.965 42.8421 146.914 25.564 113.497 25.564C65.7719 25.564 36.0049 60.8039 36.0049 103.655C36.0049 131.013 47.7309 155.071 68.7047 169.016C69.8998 168.122 70.6196 167.541 70.6196 167.541C81.0811 160.715 91.2866 153.53 101.219 146C82.5071 140.494 73.0579 122.589 73.0579 103.655C73.0579 81.1732 87.0612 59.2871 113.768 59.2871C137.286 59.2871 152.674 78.7831 154.329 99.8755C164.638 89.644 174.531 78.9821 183.982 67.9131ZM110.011 181.675C139.605 160.698 166.969 136.736 191.654 110.186C188.828 150.276 159.935 181.747 113.795 181.747C112.52 181.747 111.259 181.723 110.011 181.675Z" fill="#8DD3BB"/>
<path d="M214.201 4.57168C176.335 -9.35095 149.114 20.6071 149.114 20.6071L174.927 35.6132C184.596 30.0604 188.903 35.4507 190.013 38.4031C190.799 40.4888 189.743 42.7641 188.903 44.0101L182.619 51.9466C148.708 92.8477 108.838 128.386 64.3364 157.423C64.3364 157.423 50.902 168.257 43.7514 168.42C37.7384 168.555 35.0569 163.49 40.1219 156.231L27.6626 128.115C27.6626 128.115 -4.75883 149.351 1.52501 186.676C4.1794 202.441 18.9952 213.655 34.7319 210.811C42.7763 209.375 52.7167 205.448 64.8781 197.403L87.2508 182.776C131.752 153.685 171.649 118.038 205.533 77.0831L213.226 67.7924C224.818 54.6011 230.019 43.7393 231.779 35.1527C234.488 22.0156 226.714 9.17644 214.201 4.57168Z" fill="#8DD3BB"/>
</svg>
