<svg xmlns="http://www.w3.org/2000/svg" width="24" height="24" viewBox="0 0 24 24" fill="none">
<path d="M19.875 3.75H4.125C3.42904 3.75074 2.76179 4.02755 2.26967 4.51967C1.77755 5.01179 1.50074 5.67904 1.5 6.375V17.625C1.50074 18.321 1.77755 18.9882 2.26967 19.4803C2.76179 19.9725 3.42904 20.2493 4.125 20.25H19.875C20.571 20.2493 21.2382 19.9725 21.7303 19.4803C22.2225 18.9882 22.4993 18.321 22.5 17.625V6.375C22.4993 5.67904 22.2225 5.01179 21.7303 4.51967C21.2382 4.02755 20.571 3.75074 19.875 3.75ZM19.2103 8.09203L12.4603 13.342C12.3287 13.4444 12.1667 13.4999 12 13.4999C11.8333 13.4999 11.6713 13.4444 11.5397 13.342L4.78969 8.09203C4.71038 8.03214 4.64377 7.95709 4.59372 7.87123C4.54367 7.78537 4.51118 7.69042 4.49815 7.5919C4.48511 7.49338 4.49179 7.39325 4.51778 7.29733C4.54378 7.20142 4.58858 7.11162 4.64958 7.03316C4.71058 6.95471 4.78656 6.88916 4.87312 6.84032C4.95967 6.79149 5.05506 6.76034 5.15376 6.74869C5.25245 6.73704 5.35248 6.74513 5.44802 6.77247C5.54357 6.79981 5.63272 6.84587 5.71031 6.90797L12 11.7998L18.2897 6.90797C18.447 6.7892 18.6447 6.73711 18.84 6.76296C19.0354 6.78881 19.2128 6.89053 19.3338 7.04612C19.4547 7.20171 19.5096 7.39866 19.4865 7.59439C19.4634 7.79011 19.3642 7.96888 19.2103 8.09203Z" fill="#112211"/>
</svg>