<svg width="20" height="14" viewBox="0 0 20 14" fill="none" xmlns="http://www.w3.org/2000/svg">
<path opacity="0.5" d="M13.2729 13.728C11.9423 13.7282 10.6414 13.3338 9.5349 12.5947C8.42838 11.8555 7.56588 10.8049 7.05647 9.57559C6.54706 8.34629 6.41362 6.99353 6.67303 5.68839C6.93244 4.38325 7.57304 3.18434 8.51383 2.24327C9.45462 1.3022 10.6533 0.661243 11.9584 0.401448C13.2635 0.141652 14.6163 0.274688 15.8457 0.783731C17.0752 1.29277 18.1261 2.15496 18.8655 3.26127C19.605 4.36757 19.9998 5.6683 19.9999 6.99898V6.99998C19.9981 8.78361 19.2888 10.4937 18.0277 11.755C16.7665 13.0163 15.0566 13.7259 13.2729 13.728Z" fill="black"/>
<path d="M6.72703 13.728C5.39635 13.728 4.09556 13.3334 2.98915 12.5941C1.88274 11.8548 1.02039 10.8041 0.511165 9.57467C0.00193858 8.34529 -0.131298 6.99251 0.128303 5.68741C0.387904 4.3823 1.02868 3.18349 1.96961 2.24256C2.91054 1.30163 4.10935 0.660854 5.41446 0.401252C6.71956 0.141651 8.07234 0.274888 9.30172 0.784114C10.5311 1.29334 11.5819 2.15568 12.3212 3.2621C13.0604 4.36851 13.455 5.6693 13.455 6.99998C13.4532 8.78378 12.7437 10.494 11.4824 11.7553C10.2211 13.0167 8.51083 13.7261 6.72703 13.728Z" fill="black"/>
</svg>
