<svg width="21" height="20" viewBox="0 0 21 20" fill="none" xmlns="http://www.w3.org/2000/svg">
<path d="M15.3103 4.06L2.55422 16.8475L1.78125 18.7187L3.6525 17.9458L16.44 5.18968L15.3103 4.06ZM17.8627 1.50812L17.31 2.06031L18.4397 3.19L18.9923 2.63734C19.1374 2.49222 19.2188 2.29546 19.2188 2.09031C19.2188 1.88516 19.1374 1.6884 18.9923 1.54328L18.9572 1.50812C18.8853 1.43625 18.8 1.37923 18.7061 1.34034C18.6122 1.30144 18.5116 1.28142 18.4099 1.28142C18.3083 1.28142 18.2076 1.30144 18.1137 1.34034C18.0198 1.37923 17.9345 1.43625 17.8627 1.50812Z" stroke="black" stroke-width="2.0625" stroke-linecap="round" stroke-linejoin="round"/>
</svg>
