<svg width="18" height="19" viewBox="0 0 18 19" fill="none" xmlns="http://www.w3.org/2000/svg">
<path d="M9 11.1875C9.93198 11.1875 10.6875 10.432 10.6875 9.5C10.6875 8.56802 9.93198 7.8125 9 7.8125C8.06802 7.8125 7.3125 8.56802 7.3125 9.5C7.3125 10.432 8.06802 11.1875 9 11.1875Z" fill="black"/>
<path d="M16.5372 11.0469L16.5206 11.0335L15.4111 10.1634C15.3408 10.1078 15.2848 10.0364 15.2475 9.95489C15.2102 9.87342 15.1928 9.78427 15.1967 9.69477V9.28836C15.1931 9.19942 15.2108 9.11092 15.2481 9.03012C15.2855 8.94932 15.3414 8.87854 15.4115 8.82359L16.5206 7.95312L16.5372 7.93977C16.7082 7.79726 16.823 7.59856 16.861 7.37919C16.899 7.15982 16.8578 6.93408 16.7446 6.74234L15.2431 4.1443C15.2413 4.14185 15.2398 4.13926 15.2385 4.13656C15.1247 3.94748 14.9483 3.80421 14.7399 3.73164C14.5315 3.65907 14.3043 3.66178 14.0977 3.7393L14.0854 3.74387L12.7811 4.26875C12.6987 4.30204 12.6097 4.31528 12.5212 4.3074C12.4328 4.29951 12.3475 4.27072 12.2724 4.2234C12.157 4.15074 12.0399 4.08207 11.9208 4.01738C11.8436 3.97552 11.7773 3.9161 11.7273 3.84392C11.6773 3.77174 11.6449 3.68882 11.6329 3.60184L11.4363 2.21L11.4321 2.18469C11.3893 1.96911 11.2737 1.77483 11.1045 1.63449C10.9354 1.49415 10.7231 1.41632 10.5033 1.41406H7.49674C7.27387 1.41478 7.0584 1.49412 6.88829 1.63811C6.71819 1.78211 6.60436 1.98152 6.56685 2.20121L6.56369 2.2209L6.36787 3.61555C6.35586 3.70228 6.32376 3.78501 6.27414 3.85715C6.22452 3.92929 6.15875 3.98885 6.08205 4.03109C5.96264 4.09541 5.84539 4.16365 5.73049 4.2357C5.65548 4.28274 5.57039 4.31131 5.48221 4.31907C5.39402 4.32683 5.30525 4.31356 5.22318 4.28035L3.91783 3.75301L3.90552 3.74809C3.69862 3.67049 3.47105 3.66788 3.26242 3.74072C3.05379 3.81356 2.8773 3.95724 2.76365 4.14676L2.75908 4.15449L1.25545 6.7543C1.14211 6.94623 1.10075 7.17221 1.13875 7.39185C1.17675 7.61148 1.29164 7.81043 1.46287 7.95312L1.47939 7.96648L2.58892 8.8366C2.65919 8.89219 2.71526 8.96365 2.75254 9.04511C2.78982 9.12658 2.80724 9.21573 2.80338 9.30523V9.71164C2.8069 9.80058 2.78926 9.88908 2.75192 9.96988C2.71458 10.0507 2.65859 10.1215 2.58857 10.1764L1.47939 11.0469L1.46287 11.0602C1.29181 11.2027 1.17701 11.4014 1.13901 11.6208C1.10101 11.8402 1.14228 12.0659 1.25545 12.2577L2.75697 14.8557C2.7587 14.8582 2.76023 14.8607 2.76154 14.8634C2.87531 15.0525 3.05172 15.1958 3.26012 15.2684C3.46852 15.3409 3.69575 15.3382 3.90236 15.2607L3.91467 15.2561L5.21791 14.7312C5.30023 14.698 5.38928 14.6847 5.47773 14.6926C5.56618 14.7005 5.65148 14.7293 5.72662 14.7766C5.84193 14.8495 5.95912 14.9182 6.07818 14.9826C6.15538 15.0245 6.22165 15.0839 6.27167 15.1561C6.32168 15.2283 6.35403 15.3112 6.36611 15.3982L6.56158 16.79L6.5658 16.8153C6.60865 17.0312 6.72465 17.2258 6.89423 17.3662C7.06381 17.5065 7.2766 17.5842 7.49674 17.5859H10.5033C10.7262 17.5852 10.9416 17.5059 11.1117 17.3619C11.2818 17.2179 11.3957 17.0185 11.4332 16.7988L11.4363 16.7791L11.6322 15.3845C11.6444 15.2976 11.6767 15.2147 11.7267 15.1426C11.7766 15.0704 11.8427 15.0109 11.9197 14.9689C12.04 14.9042 12.1574 14.8357 12.2713 14.7643C12.3463 14.7173 12.4314 14.6887 12.5196 14.6809C12.6078 14.6732 12.6965 14.6864 12.7786 14.7196L14.084 15.2452L14.0963 15.2502C14.3032 15.3279 14.5308 15.3306 14.7394 15.2577C14.9481 15.1849 15.1246 15.0411 15.2381 14.8515C15.2395 14.8488 15.2411 14.8462 15.2427 14.8438L16.7442 12.2461C16.8578 12.0541 16.8993 11.8281 16.8614 11.6084C16.8234 11.3886 16.7085 11.1896 16.5372 11.0469V11.0469ZM11.8094 9.63219C11.7838 10.1766 11.6005 10.7019 11.2819 11.1441C10.9633 11.5863 10.5231 11.9264 10.0148 12.1231C9.50653 12.3198 8.95204 12.3645 8.41878 12.2519C7.88552 12.1392 7.39647 11.8741 7.0111 11.4887C6.62573 11.1033 6.36065 10.6142 6.24809 10.0809C6.13553 9.54765 6.18034 8.99316 6.37707 8.48488C6.5738 7.97661 6.91397 7.53644 7.35623 7.2179C7.79848 6.89937 8.32376 6.7162 8.86818 6.69066C9.25903 6.67346 9.64919 6.73777 10.0138 6.87951C10.3785 7.02125 10.7097 7.23732 10.9863 7.51398C11.2629 7.79064 11.4789 8.12183 11.6206 8.4865C11.7623 8.85117 11.8266 9.24134 11.8094 9.63219V9.63219Z" fill="black"/>
</svg>
