<svg xmlns="http://www.w3.org/2000/svg" width="20" height="20" viewBox="0 0 20 20" fill="none">
  <path d="M13.1866 13.915L13.2024 13.9239L13.215 13.9107C13.4455 13.6697 13.7225 13.4778 14.0292 13.3468C14.336 13.2158 14.6661 13.1483 14.9996 13.1484C15.5168 13.1484 16.0211 13.3103 16.4417 13.6114C16.8622 13.9126 17.1779 14.3378 17.3445 14.8275C17.511 15.3172 17.5201 15.8468 17.3704 16.3419C17.2206 16.837 16.9197 17.2728 16.5097 17.5881C16.0997 17.9034 15.6012 18.0825 15.0843 18.1001C14.5673 18.1178 14.0578 17.9731 13.6273 17.6865C13.1968 17.3998 12.8668 16.9855 12.6837 16.5018C12.5005 16.0181 12.4735 15.4891 12.6062 14.9892L12.6109 14.9717L12.5951 14.9628L6.81383 11.71L6.798 11.7011L6.78543 11.7142C6.44333 12.0709 6.00234 12.3171 5.51918 12.4211C5.03602 12.5251 4.5328 12.4822 4.07425 12.2978C3.6157 12.1135 3.22279 11.7961 2.94607 11.3866C2.66935 10.9771 2.52148 10.4942 2.52148 10C2.52148 9.50578 2.66935 9.02286 2.94607 8.61336C3.22279 8.20387 3.6157 7.88654 4.07425 7.70218C4.5328 7.51783 5.03602 7.47489 5.51918 7.57889C6.00234 7.68289 6.44333 7.92907 6.78543 8.28575L6.798 8.29887L6.81383 8.28996L12.5951 5.03722L12.6109 5.02832L12.6062 5.01076C12.4516 4.4303 12.5139 3.81338 12.7815 3.27558C13.0491 2.73777 13.5036 2.31598 14.0599 2.08922C14.6161 1.86246 15.236 1.8463 15.8033 2.04376C16.3706 2.24122 16.8465 2.63875 17.1418 3.16188C17.437 3.68501 17.5314 4.29784 17.4073 4.88557C17.2831 5.4733 16.9489 5.9956 16.4673 6.35462C15.9857 6.71364 15.3897 6.88475 14.791 6.83589C14.1923 6.78703 13.6319 6.52155 13.2149 6.0892L13.2023 6.07616L13.1866 6.08504L7.4053 9.33778L7.38947 9.34668L7.39415 9.36423C7.50508 9.78082 7.50508 10.2192 7.39415 10.6358L7.38947 10.6533L7.4053 10.6622L13.1866 13.915Z" fill="black" stroke="#112211" stroke-width="0.046875"/>
</svg>