<svg width="16" height="16" viewBox="0 0 16 16" fill="none" xmlns="http://www.w3.org/2000/svg">
<path d="M13.5685 2.43155C12.8385 1.69438 11.9701 1.1087 11.0131 0.708158C10.0561 0.307619 9.02946 0.100111 7.99204 0.097558C6.95462 0.0950047 5.92692 0.297455 4.96798 0.69328C4.00904 1.0891 3.13776 1.6705 2.40419 2.40407C1.67062 3.13764 1.08923 4.00892 0.693402 4.96786C0.297578 5.9268 0.0951268 6.9545 0.0976801 7.99192C0.100233 9.02933 0.307741 10.056 0.708281 11.013C1.10882 11.97 1.6945 12.8384 2.43167 13.5683C3.16162 14.3055 4.03003 14.8912 4.98701 15.2917C5.94399 15.6923 6.97068 15.8998 8.0081 15.9023C9.04551 15.9049 10.0732 15.7024 11.0322 15.3066C11.9911 14.9108 12.8624 14.3294 13.5959 13.5958C14.3295 12.8623 14.9109 11.991 15.3067 11.032C15.7026 10.0731 15.905 9.04539 15.9025 8.00797C15.8999 6.97055 15.6924 5.94386 15.2919 4.98688C14.8913 4.0299 14.3056 3.16149 13.5685 2.43155V2.43155ZM5.75464 8.1469C5.7248 7.69035 5.83485 7.23556 6.07012 6.84316C6.30539 6.45076 6.65469 6.13942 7.07145 5.95063C7.48821 5.76185 7.95261 5.7046 8.40274 5.78653C8.85287 5.86845 9.26732 6.08566 9.59084 6.40917C9.91435 6.73269 10.1316 7.14715 10.2135 7.59727C10.2954 8.0474 10.2382 8.5118 10.0494 8.92856C9.8606 9.34532 9.54925 9.69462 9.15685 9.92989C8.76446 10.1652 8.30966 10.2752 7.85311 10.2454C7.30844 10.2093 6.79542 9.97657 6.40943 9.59058C6.02344 9.20459 5.79076 8.69157 5.75464 8.1469V8.1469ZM14.1921 5.80409L10.8041 6.0094C10.7809 6.01062 10.7578 6.00617 10.7367 5.99642C10.7157 5.98668 10.6973 5.97195 10.6832 5.9535C10.5007 5.71438 10.287 5.50073 10.0479 5.31823C10.0295 5.30413 10.0147 5.28575 10.005 5.26468C9.99525 5.24361 9.9908 5.22047 9.99202 5.19729L10.1973 1.80928C10.1986 1.7872 10.205 1.76572 10.2161 1.7466C10.2273 1.72748 10.2427 1.71125 10.2613 1.69923C10.2799 1.6872 10.301 1.67973 10.323 1.67741C10.345 1.67509 10.3672 1.678 10.3879 1.68588C11.2823 2.0266 12.0946 2.5527 12.7712 3.22962C13.4479 3.90654 13.9737 4.71897 14.3141 5.61354C14.322 5.6342 14.3249 5.65643 14.3226 5.67843C14.3203 5.70042 14.3128 5.72156 14.3008 5.74013C14.2888 5.75869 14.2725 5.77416 14.2534 5.78527C14.2343 5.79638 14.2128 5.80283 14.1907 5.80409H14.1921ZM5.80421 1.80928L6.00952 5.19729C6.01074 5.22047 6.00629 5.24361 5.99655 5.26468C5.98681 5.28575 5.97207 5.30413 5.95362 5.31823C5.7145 5.50073 5.50085 5.71438 5.31835 5.9535C5.30426 5.97195 5.28588 5.98668 5.2648 5.99642C5.24373 6.00617 5.22059 6.01062 5.19741 6.0094L1.8094 5.80409C1.78732 5.80283 1.76585 5.79638 1.74672 5.78527C1.7276 5.77416 1.71137 5.75869 1.69935 5.74013C1.68733 5.72156 1.67985 5.70042 1.67753 5.67843C1.67521 5.65643 1.67812 5.6342 1.686 5.61354C2.02655 4.71883 2.55258 3.90632 3.22951 3.22939C3.90644 2.55245 4.71895 2.02643 5.61366 1.68588C5.63432 1.678 5.65656 1.67509 5.67855 1.67741C5.70055 1.67973 5.72168 1.6872 5.74025 1.69923C5.75881 1.71125 5.77428 1.72748 5.78539 1.7466C5.79651 1.76572 5.80295 1.7872 5.80421 1.80928V1.80928ZM1.8094 10.1958L5.19741 9.99049C5.22059 9.98927 5.24373 9.99372 5.2648 10.0035C5.28588 10.0132 5.30426 10.0279 5.31835 10.0464C5.50085 10.2855 5.7145 10.4992 5.95362 10.6817C5.97207 10.6958 5.98681 10.7141 5.99655 10.7352C6.00629 10.7563 6.01074 10.7794 6.00952 10.8026L5.80421 14.1906C5.80295 14.2127 5.79651 14.2342 5.78539 14.2533C5.77428 14.2724 5.75881 14.2886 5.74025 14.3007C5.72168 14.3127 5.70055 14.3202 5.67855 14.3225C5.65656 14.3248 5.63432 14.3219 5.61366 14.314C4.71895 13.9735 3.90644 13.4474 3.22951 12.7705C2.55258 12.0936 2.02655 11.2811 1.686 10.3864C1.67812 10.3657 1.67521 10.3435 1.67753 10.3215C1.67985 10.2995 1.68733 10.2783 1.69935 10.2598C1.71137 10.2412 1.7276 10.2257 1.74672 10.2146C1.76585 10.2035 1.78732 10.1971 1.8094 10.1958V10.1958ZM10.1959 14.1906L9.99061 10.8026C9.98939 10.7794 9.99385 10.7563 10.0036 10.7352C10.0133 10.7141 10.0281 10.6958 10.0465 10.6817C10.2856 10.4992 10.4993 10.2855 10.6818 10.0464C10.6959 10.0279 10.7143 10.0132 10.7353 10.0035C10.7564 9.99372 10.7795 9.98927 10.8027 9.99049L14.1907 10.1958C14.2128 10.1971 14.2343 10.2035 14.2534 10.2146C14.2725 10.2257 14.2888 10.2412 14.3008 10.2598C14.3128 10.2783 14.3203 10.2995 14.3226 10.3215C14.3249 10.3435 14.322 10.3657 14.3141 10.3864C13.9736 11.2811 13.4476 12.0936 12.7706 12.7705C12.0937 13.4474 11.2812 13.9735 10.3865 14.314C10.3658 14.3219 10.3436 14.3248 10.3216 14.3225C10.2996 14.3202 10.2784 14.3127 10.2599 14.3007C10.2413 14.2886 10.2259 14.2724 10.2147 14.2533C10.2036 14.2342 10.1972 14.2127 10.1959 14.1906V14.1906Z" fill="black"/>
</svg>
