<svg xmlns="http://www.w3.org/2000/svg" width="22" height="22" viewBox="0 0 22 22" fill="none">
  <path d="M11 2.75C6.44386 2.75 2.75 6.44386 2.75 11C2.75 15.5561 6.44386 19.25 11 19.25C15.5561 19.25 19.25 15.5561 19.25 11C19.25 6.44386 15.5561 2.75 11 2.75ZM14.8077 12.2692H11C10.8317 12.2692 10.6703 12.2024 10.5513 12.0834C10.4322 11.9643 10.3654 11.8029 10.3654 11.6346V5.92308C10.3654 5.75477 10.4322 5.59335 10.5513 5.47434C10.6703 5.35532 10.8317 5.28846 11 5.28846C11.1683 5.28846 11.3297 5.35532 11.4487 5.47434C11.5678 5.59335 11.6346 5.75477 11.6346 5.92308V11H14.8077C14.976 11 15.1374 11.0669 15.2564 11.1859C15.3754 11.3049 15.4423 11.4663 15.4423 11.6346C15.4423 11.8029 15.3754 11.9643 15.2564 12.0834C15.1374 12.2024 14.976 12.2692 14.8077 12.2692Z" fill="#8DD3BB"/>
</svg>