<svg
              xmlns="http://www.w3.org/2000/svg"
              width="20"
              height="21"
              viewBox="0 0 20 21"
              fill="none"
            >
              <path
                d="M19.7029 4.26137C19.0071 4.5697 18.2596 4.77803 17.4737 4.8722C18.2846 4.38703 18.8912 3.62342 19.1804 2.72387C18.4186 3.17636 17.5849 3.49486 16.7154 3.66553C16.1307 3.04125 15.3563 2.62747 14.5124 2.48843C13.6684 2.34938 12.8022 2.49286 12.0481 2.89658C11.2941 3.30029 10.6944 3.94167 10.3422 4.72112C9.99003 5.50057 9.90503 6.37449 10.1004 7.2072C8.55682 7.1297 7.04677 6.72849 5.66827 6.02962C4.28977 5.33075 3.07362 4.34983 2.09875 3.15053C1.76542 3.72553 1.57375 4.3922 1.57375 5.1022C1.57338 5.74136 1.73078 6.37073 2.03198 6.93448C2.33319 7.49822 2.76888 7.9789 3.30042 8.33387C2.68398 8.31425 2.08114 8.14769 1.54208 7.84803V7.89803C1.54202 8.79448 1.85211 9.66335 2.41974 10.3572C2.98736 11.051 3.77756 11.5271 4.65625 11.7047C4.0844 11.8595 3.48486 11.8823 2.90292 11.7714C3.15083 12.5427 3.63375 13.2172 4.28406 13.7005C4.93437 14.1837 5.71951 14.4515 6.52958 14.4664C5.15444 15.5459 3.45616 16.1314 1.70792 16.1289C1.39823 16.129 1.08881 16.1109 0.78125 16.0747C2.55581 17.2157 4.62153 17.8212 6.73125 17.8189C13.8729 17.8189 17.7771 11.9039 17.7771 6.77387C17.7771 6.6072 17.7729 6.43887 17.7654 6.2722C18.5248 5.72301 19.1803 5.04295 19.7013 4.26387L19.7029 4.26137Z"
                fill="currentColor"
              />
            </svg>