<svg width="16" height="17" viewBox="0 0 16 17" fill="none" xmlns="http://www.w3.org/2000/svg">
<path d="M10.6946 1.77039C10.0104 1.03176 9.05489 0.625 8.0002 0.625C6.93989 0.625 5.98118 1.0293 5.3002 1.76336C4.61184 2.50551 4.27645 3.51414 4.3552 4.60328C4.5113 6.75203 6.14641 8.5 8.0002 8.5C9.85399 8.5 11.4863 6.75238 11.6448 4.60398C11.7247 3.52469 11.3872 2.51816 10.6946 1.77039V1.77039ZM14.1877 16.375H1.8127C1.65072 16.3771 1.49031 16.3431 1.34314 16.2754C1.19597 16.2077 1.06574 16.1081 0.96192 15.9837C0.733404 15.7105 0.641295 15.3375 0.709498 14.9603C1.00622 13.3143 1.93223 11.9316 3.3877 10.9609C4.68075 10.0993 6.31868 9.625 8.0002 9.625C9.68172 9.625 11.3197 10.0996 12.6127 10.9609C14.0682 11.9313 14.9942 13.3139 15.2909 14.96C15.3591 15.3372 15.267 15.7102 15.0385 15.9834C14.9347 16.1078 14.8045 16.2075 14.6573 16.2752C14.5101 16.343 14.3497 16.3771 14.1877 16.375V16.375Z" fill="black"/>
</svg>
