<svg xmlns="http://www.w3.org/2000/svg" width="32" height="32" viewBox="0 0 32 32" fill="none">
<g clip-path="url(#clip0_141_21587)">
<path d="M1.28 5.9519C0.573216 5.9519 0 6.52496 0 7.2319V24.7679C0 25.4748 0.573504 26.0479 1.28 26.0479H30.72C31.4268 26.0479 32 25.4748 32 24.7679V7.2319C32 6.52499 31.4265 5.9519 30.72 5.9519H1.28ZM19.112 11.9409C19.8908 11.9409 20.515 12.1129 20.913 12.2729L20.641 13.9839L20.461 13.8929C20.0902 13.7329 19.614 13.579 18.957 13.5899C18.1706 13.5899 17.807 13.9407 17.807 14.2689C17.8024 14.6388 18.2318 14.8827 18.934 15.2479C20.0929 15.8114 20.6286 16.4947 20.621 17.3929C20.6054 19.0318 19.2347 20.0909 17.123 20.0909C16.2221 20.081 15.3542 19.8903 14.885 19.6699L15.167 17.9019L15.426 18.0279C16.0858 18.3227 16.513 18.4419 17.317 18.4419C17.8944 18.4419 18.5141 18.2002 18.519 17.6709C18.5228 17.3253 18.26 17.0789 17.478 16.6919C16.716 16.3142 15.7058 15.6814 15.717 14.5469C15.7289 13.0122 17.127 11.9409 19.112 11.9409ZM2.82998 12.1919H6.07299C6.5097 12.2084 6.86227 12.349 6.984 12.8229L7.68301 16.4309C7.6831 16.4312 7.68288 16.4325 7.68301 16.4329L7.89299 17.5139L9.86199 12.1919H11.992L8.82598 19.9819L6.69798 19.9839L5.004 13.6979C6.01194 14.2319 6.87005 14.8497 7.36701 15.6999C7.23888 15.4309 7.07005 15.1272 6.85402 14.8279C6.60243 14.4794 6.0591 14.0293 5.832 13.8379C5.04064 13.1708 3.96592 12.632 2.80499 12.3469L2.82998 12.1919ZM12.839 12.2009H14.922L13.619 19.9789H11.536L12.839 12.2009ZM24.604 12.2009H26.182L27.834 19.9789H25.94C25.94 19.9789 25.7521 19.0853 25.691 18.8129C25.3933 18.8129 23.3113 18.8099 23.077 18.8099C22.9977 19.0205 22.647 19.9789 22.647 19.9789H20.504L23.535 12.8469C23.7496 12.3401 24.1154 12.2009 24.604 12.2009ZM24.759 14.2929C24.6565 14.5822 24.4781 15.0494 24.49 15.0289C24.49 15.0289 23.8488 16.739 23.681 17.1829L25.366 17.1819C25.2095 16.4402 25.0528 15.6986 24.896 14.957L24.759 14.293V14.2929Z" fill="black"/>
</g>
<defs>
<clipPath id="clip0_141_21587">
<rect width="32" height="32" fill="white"/>
</clipPath>
</defs>
</svg>