<svg xmlns="http://www.w3.org/2000/svg" width="24" height="24" viewBox="0 0 24 24" fill="none">
<path d="M15.5818 14.5589C14.595 13.6818 13.3207 13.1974 12.0005 13.1974C10.6803 13.1974 9.40605 13.6818 8.4193 14.5589M18.4435 11.6972C16.6959 10.063 14.3927 9.15396 12.0001 9.15396C9.60748 9.15396 7.30425 10.063 5.55664 11.6972" stroke="#112211" stroke-width="2" stroke-linecap="round" stroke-linejoin="round"/>
<path d="M20.9864 8.53632C18.513 6.32979 15.3142 5.11035 11.9996 5.11035C8.68494 5.11035 5.48615 6.32979 3.0127 8.53632" stroke="#112211" stroke-width="2" stroke-linecap="round" stroke-linejoin="round"/>
<path d="M12 19.5C11.7033 19.5 11.4133 19.412 11.1666 19.2472C10.92 19.0824 10.7277 18.8481 10.6142 18.574C10.5006 18.2999 10.4709 17.9983 10.5288 17.7074C10.5867 17.4164 10.7296 17.1491 10.9393 16.9393C11.1491 16.7296 11.4164 16.5867 11.7074 16.5288C11.9983 16.4709 12.2999 16.5006 12.574 16.6142C12.8481 16.7277 13.0824 16.92 13.2472 17.1666C13.412 17.4133 13.5 17.7033 13.5 18C13.5 18.3978 13.342 18.7794 13.0607 19.0607C12.7794 19.342 12.3978 19.5 12 19.5Z" fill="#112211"/>
</svg>