<svg
              xmlns="http://www.w3.org/2000/svg"
              width="20"
              height="21"
              viewBox="0 0 20 21"
              fill="none"
            >
              <g clipPath="url(#clip0_400_3200)">
                <path
                  d="M19.5829 5.56962C19.4696 5.16564 19.249 4.79991 18.9445 4.51128C18.6314 4.21379 18.2477 4.00098 17.8295 3.89295C16.2645 3.48045 9.99454 3.48045 9.99454 3.48045C7.38065 3.45071 4.7674 3.58151 2.16954 3.87212C1.75136 3.98813 1.36834 4.20569 1.05454 4.50545C0.746204 4.80212 0.522871 5.16795 0.406204 5.56878C0.125949 7.07857 -0.0102189 8.61157 -0.000462243 10.1471C-0.0104622 11.6813 0.125371 13.2138 0.406204 14.7255C0.520371 15.1246 0.742871 15.4888 1.05204 15.783C1.3612 16.0771 1.7462 16.2896 2.16954 16.4021C3.75537 16.8138 9.99454 16.8138 9.99454 16.8138C12.6118 16.8436 15.2283 16.7128 17.8295 16.4221C18.2477 16.3141 18.6314 16.1013 18.9445 15.8038C19.2489 15.5152 19.4693 15.1494 19.582 14.7455C19.8696 13.2362 20.0094 11.7026 19.9995 10.1663C20.0212 8.62345 19.8815 7.08259 19.5829 5.56878V5.56962ZM8.0012 13.0005V7.29462L13.2179 10.148L8.0012 13.0005Z"
                  fill="currentColor"
                />
              </g>
              <defs>
                <clipPath id="clip0_400_3200">
                  <rect
                    width="20"
                    height="20"
                    fill="white"
                    transform="translate(0 0.147217)"
                  />
                </clipPath>
              </defs>
            </svg>