<svg width="120" height="80" fill="none" xmlns="http://www.w3.org/2000/svg"><rect width="120" height="80" rx="4" fill="#0690FF"/><g clip-path="url(#prefix__clip0_703_18)"><rect x="40" width="80" height="80" rx="4" fill="#fff"/><path d="M120 80V67.324h-9.651l-4.969-5.495-4.994 5.495H68.564V41.716h-10.27l12.74-28.83h12.285l4.386 9.876v-9.877h15.208l2.64 7.443 2.658-7.443H120V0H40v80h80zm-8.026-15.882H120l-10.616-11.259L120 41.73h-7.898l-6.556 7.165-6.494-7.165h-8.027l10.554 11.194-10.554 11.195h7.804l6.589-7.229 6.556 7.229zm1.878-11.25L120 59.41V46.383l-6.148 6.486zm-35.78 6.068V55.45h12.633v-5.053H78.072V46.91h12.953v-5.182H71.963v22.389h19.062v-5.182H78.072zm35.883-20.456H120V16.092h-9.403l-5.022 13.944-4.989-13.944h-9.563V38.48h6.044V22.808l5.758 15.672h5.373l5.757-15.704V38.48zm-29.809 0h6.877L81.14 16.092h-7.869L63.39 38.48h6.717l1.855-4.477h10.298l1.887 4.477zm-3.997-9.499H74.07l3.04-7.324 3.038 7.324z" fill="#0690FF"/></g><defs><clipPath id="prefix__clip0_703_18"><rect x="40" width="80" height="80" rx="4" fill="#fff"/></clipPath></defs></svg>