<svg width="120" height="80" fill="none" xmlns="http://www.w3.org/2000/svg"><rect width="120" height="80" rx="4" fill="#fff"/><path fill-rule="evenodd" clip-rule="evenodd" d="M29 80h87.002A3.999 3.999 0 00120 75.996V48S87.862 70.106 29 80z" fill="#E7792B"/><path fill-rule="evenodd" clip-rule="evenodd" d="M113.088 33.862c0-3.15-2.2-4.967-6.035-4.967h-4.933V45.72h3.323v-6.76h.434l4.604 6.76h4.09l-5.369-7.089c2.506-.502 3.886-2.193 3.886-4.769zm-6.674 2.78h-.971v-5.097h1.024c2.071 0 3.198.857 3.198 2.493 0 1.693-1.127 2.603-3.251 2.603zM90.484 45.72h9.434V42.87h-6.11V38.33h5.884v-2.85h-5.884v-3.734h6.11v-2.85h-9.434V45.72zM80.768 40.196l-4.547-11.3h-3.635l7.238 17.255h1.789l7.367-17.256h-3.606l-4.606 11.3z" fill="#1A1918"/><path d="M64.618 46.72c5.094 0 9.223-4.075 9.223-9.1 0-5.026-4.13-9.1-9.223-9.1-5.094 0-9.224 4.074-9.224 9.1 0 5.025 4.13 9.1 9.224 9.1z" fill="url(#prefix__paint0_radial_823_341)"/><path fill-rule="evenodd" clip-rule="evenodd" d="M41.223 37.32c0 4.944 3.936 8.779 9.001 8.779 1.432 0 2.658-.278 4.17-.98v-3.864c-1.33 1.313-2.507 1.843-4.015 1.843-3.35 0-5.728-2.396-5.728-5.804 0-3.23 2.453-5.777 5.573-5.777 1.586 0 2.788.558 4.17 1.892v-3.86c-1.46-.731-2.66-1.034-4.092-1.034-5.039 0-9.079 3.912-9.079 8.804zM35.269 35.352c-1.996-.73-2.582-1.21-2.582-2.119 0-1.06 1.044-1.865 2.478-1.865.996 0 1.815.404 2.682 1.363l1.74-2.249a7.52 7.52 0 00-5.01-1.865c-3.018 0-5.32 2.067-5.32 4.82 0 2.319 1.072 3.505 4.196 4.615 1.302.453 1.965.754 2.3.958.664.428.997 1.034.997 1.74 0 1.364-1.099 2.374-2.583 2.374-1.586 0-2.864-.783-3.63-2.244l-2.15 2.041c1.533 2.22 3.374 3.203 5.905 3.203 3.456 0 5.882-2.267 5.882-5.524 0-2.673-1.122-3.883-4.905-5.248zM23.81 28.895h3.326V45.72h-3.327V28.895zM13.124 28.895H8.242V45.72h4.856c2.583 0 4.448-.602 6.085-1.942 1.945-1.59 3.096-3.983 3.096-6.459 0-4.965-3.76-8.424-9.155-8.424zm3.886 12.639c-1.046.931-2.403 1.337-4.552 1.337h-.893V31.746h.893c2.15 0 3.453.379 4.552 1.36 1.15 1.011 1.842 2.577 1.842 4.188 0 1.616-.692 3.23-1.842 4.24zM115.21 29.527c0-.294-.205-.456-.567-.456h-.481v1.479h.358v-.573l.419.573h.437l-.493-.61c.211-.056.327-.207.327-.413zm-.63.203h-.06v-.387h.064c.177 0 .269.063.269.19 0 .131-.093.197-.273.197z" fill="#1A1918"/><path fill-rule="evenodd" clip-rule="evenodd" d="M114.715 28.519a1.29 1.29 0 00-1.305 1.289c0 .715.584 1.29 1.305 1.29.709 0 1.29-.58 1.29-1.29 0-.706-.581-1.29-1.29-1.29zm-.005 2.348a1.05 1.05 0 01-1.041-1.057c0-.59.463-1.06 1.041-1.06.57 0 1.035.482 1.035 1.06 0 .581-.465 1.057-1.035 1.057z" fill="#1A1918"/><defs><radialGradient id="prefix__paint0_radial_823_341" cx="0" cy="0" r="1" gradientUnits="userSpaceOnUse" gradientTransform="matrix(-12.99991 -10.00008 9.86619 -12.82585 71.5 44)"><stop stop-color="#F59900"/><stop offset=".21" stop-color="#F39501"/><stop offset=".908" stop-color="#CE3C0B"/><stop offset="1" stop-color="#A4420A"/></radialGradient></defs></svg>