<svg xmlns="http://www.w3.org/2000/svg" width="300" height="194.628"><g fill-rule="evenodd"><path d="M0 177.553V13.119S2.187 0 20.554 0C38.92 0 286.006.438 286.006.438S300 .438 300 19.68v161.807s-1.313 13.12-18.369 13.12H17.493S2.623 195.92 0 177.553z" fill="#8d1238"/><path d="M291.536 113.267l.007-28.28h-74.635s-1.31.293-1.31-1.166l.009-16.181s-.3-1.209 1.738-1.209c2.04 0 67.637-.045 67.637-.045s6.123.234 6.123-6.617V39.65s-.732-26.238-31.05-30.174h-40.96s-32.464.034-34.65 33.123c0 30.03.102 41.948.102 41.948s1.75 27.258 32.65 28.741l74.339-.022z" fill="#fff"/><path d="M216.58 37.064h43.076l.007 8.526s.43.876-1.317.876H215.2l-.041-7.872s-.217-1.53 1.422-1.53z" fill="#8d1238"/><path d="M81.778 169.193l-2.405 9.274-28.207-.04s-8.418.109-8.637-9.293c2.077-9.293 5.03-18.916 5.03-18.916s1.967-7.87 11.807-7.763c9.183.104 19.132.075 19.132.075s8.695.598 7.873 8.672c-.657 6.452-1.312 7.217-1.312 7.217s.327 4.045-6.233 3.902l-21.976-.075s-1.53-.22-2.187 1.42c-.655 1.64-1.42 3.5-1.42 3.5s-.437 1.947 1.203 2.056l27.332-.029z" fill="#fff"/><path d="M59.257 151.97h15.525s1.095-.22.875.983c-.219 1.204.328 3.06-2.296 3.06-2.624 0-15.524.062-15.524.062s-1.312.157-.986-.935c.329-1.096.657-3.281 2.406-3.17z" fill="#8d1238"/><path d="M105.176 178.435l9.948-35.205s2.514-7.763 9.292-7.763c1.53-.11 3.17.109 3.17.109l-1.64 7.325 8.2.082-2.515 10.257-7.105-.062s-1.312-.218-1.967 1.64c-.875 2.478-6.89 23.663-6.89 23.663l-10.493-.046zM82.326 178.495l13.12-46.027s3.17-6.888 10.168-6.888c6.996 0 10.495.039 10.495.039l-2.297 9.26-5.466-.008s-3.06-.326-3.717 1.75c-.656 2.077-1.094 3.608-1.094 3.608s-1.092 2.515 1.094 2.515c2.188 0 7.106.04 7.106.04l-2.732 10.017h-5.797s-2.95-.457-3.715 2.298c-.909 3.269-6.561 23.396-6.561 23.396H82.326zM124.745 187.72L135.458 150s2.626-7.325 10.277-7.325h20.662s8.746.33 7.763 9.73l-4.7 17.93s-1.641 8.091-12.573 8.091h-15.306l2.626-10.277 12.79.097s2.623.449 3.17-2.064c.875-3.062 3.28-11.807 3.28-11.807s.983-1.64-1.314-1.64h-14.539s-2.076-.439-2.732 1.748c-.767 2.516-9.62 33.344-9.62 33.344l-10.497-.108zM173.832 166.508l4.155-15.306s2.405-8.527 10.386-8.527h20.664s10.167.656 8.2 9.841c-1.967 9.184-4.593 17.71-4.593 17.71s-1.859 8.2-12.025 8.2h-17.601s-11.7 0-9.186-11.918z" fill="#fff"/><path d="M190.67 152.624l13.774.075s2.407-.403 2.077 1.237c-.326 1.64-3.279 11.917-3.279 11.917s-.655 1.75-2.514 1.859c-2.627.153-15.087 0-15.087 0s-1.64.11-1.094-1.64c.753-2.41 3.498-12.245 3.498-12.245s.11-1.203 2.625-1.203z" fill="#8d1238"/><path d="M215.27 178.481l2.296-9.743 24.816-.043s2.186.439 2.734-1.968c.219-1.748.219-1.953.219-1.953l-14.433-.014s-11.26.547-10.604-10.168c.656-10.715 9.075-12.137 11.917-12.137h27.66l-2.514 9.295h-23.617s-1.748-.219-2.075 1.859c0 0-1.204 2.075.983 2.186 2.187.108 14.651 0 14.651 0s9.73-.33 9.184 9.073c-.548 9.404-5.811 13.559-12.04 13.559l-29.177.054z" fill="#fff"/></g></svg>