<svg width="120" height="80" fill="none" xmlns="http://www.w3.org/2000/svg"><path d="M100.9 58.8c0 7-5.7 12.7-12.7 12.7H19.1V21.2c0-7 5.7-12.7 12.7-12.7h69.1v50.3z" fill="#fff"/><path d="M78.4 45.9h5.25c.15 0 .5-.05.65-.05 1-.2 1.85-1.1 1.85-2.35 0-1.2-.85-2.1-1.85-2.35-.15-.05-.45-.05-.65-.05H78.4v4.8z" fill="url(#prefix__paint0_linear_833_6149)"/><path d="M83.05 12.75c-5 0-9.1 4.05-9.1 9.1v9.45H86.8c.3 0 .65 0 .9.05 2.9.15 5.05 1.65 5.05 4.25 0 2.05-1.45 3.8-4.15 4.15v.1c2.95.2 5.2 1.85 5.2 4.4 0 2.75-2.5 4.55-5.8 4.55H73.9v18.5h13.35c5 0 9.1-4.05 9.1-9.1V12.75h-13.3z" fill="url(#prefix__paint1_linear_833_6149)"/><path d="M85.5 36.2c0-1.2-.85-2-1.85-2.15-.1 0-.35-.05-.5-.05H78.4v4.4h4.75c.15 0 .45 0 .5-.05 1-.15 1.85-.95 1.85-2.15z" fill="url(#prefix__paint2_linear_833_6149)"/><path d="M57.899 12.75c-5 0-9.1 4.05-9.1 9.1v11.9c2.3-1.95 6.3-3.2 12.75-2.9 3.45.15 7.15 1.1 7.15 1.1v3.85c-1.85-.95-4.05-1.8-6.9-2-4.9-.35-7.85 2.05-7.85 6.25 0 4.25 2.95 6.65 7.85 6.25 2.85-.2 5.05-1.1 6.9-2v3.85s-3.65.95-7.15 1.1c-6.45.3-10.45-.95-12.75-2.9v21h13.35c5 0 9.1-4.05 9.1-9.1v-45.5h-13.35z" fill="url(#prefix__paint3_linear_833_6149)"/><path d="M32.75 12.75c-5 0-9.1 4.05-9.1 9.1V44.3c2.55 1.25 5.2 2.05 7.85 2.05 3.15 0 4.85-1.9 4.85-4.5v-10.6h7.8V41.8c0 4.1-2.55 7.45-11.2 7.45-5.25 0-9.35-1.15-9.35-1.15v19.15h13.35c5 0 9.1-4.05 9.1-9.1v-45.4h-13.3z" fill="url(#prefix__paint4_linear_833_6149)"/><defs><linearGradient id="prefix__paint0_linear_833_6149" x1="60.98" y1="40.082" x2="126.075" y2="40.082" gradientUnits="userSpaceOnUse"><stop stop-color="#007940"/><stop offset=".229" stop-color="#00873F"/><stop offset=".743" stop-color="#40A737"/><stop offset="1" stop-color="#5CB531"/></linearGradient><linearGradient id="prefix__paint1_linear_833_6149" x1="73.94" y1="40.002" x2="96.411" y2="40.002" gradientUnits="userSpaceOnUse"><stop stop-color="#007940"/><stop offset=".229" stop-color="#00873F"/><stop offset=".743" stop-color="#40A737"/><stop offset="1" stop-color="#5CB531"/></linearGradient><linearGradient id="prefix__paint2_linear_833_6149" x1="73.94" y1="36.193" x2="96.409" y2="36.193" gradientUnits="userSpaceOnUse"><stop stop-color="#007940"/><stop offset=".229" stop-color="#00873F"/><stop offset=".743" stop-color="#40A737"/><stop offset="1" stop-color="#5CB531"/></linearGradient><linearGradient id="prefix__paint3_linear_833_6149" x1="48.669" y1="40.002" x2="70.829" y2="40.002" gradientUnits="userSpaceOnUse"><stop stop-color="#6C2C2F"/><stop offset=".173" stop-color="#882730"/><stop offset=".573" stop-color="#BE1833"/><stop offset=".859" stop-color="#DC0436"/><stop offset="1" stop-color="#E60039"/></linearGradient><linearGradient id="prefix__paint4_linear_833_6149" x1="23.638" y1="40.002" x2="46.455" y2="40.002" gradientUnits="userSpaceOnUse"><stop stop-color="#1F286F"/><stop offset=".475" stop-color="#004E94"/><stop offset=".826" stop-color="#0066B1"/><stop offset="1" stop-color="#006FBC"/></linearGradient></defs></svg>