<svg width="120" height="80" fill="none" xmlns="http://www.w3.org/2000/svg"><path fill-rule="evenodd" clip-rule="evenodd" d="M97.529 54.656v-.918h-.24l-.275.632-.276-.632h-.24v.918h.17v-.692l.258.597h.175l.259-.599v.694h.169zm-1.518 0v-.761h.307v-.155h-.782v.155h.307v.761h.168z" fill="#F79E1B"/><path fill-rule="evenodd" clip-rule="evenodd" d="M49.652 58.595h20.696v-37.19H49.652v37.19z" fill="#FF5F00"/><path fill-rule="evenodd" clip-rule="evenodd" d="M98.267 40c0 13.063-10.588 23.652-23.65 23.652A23.55 23.55 0 0160 58.596c5.501-4.331 9.034-11.051 9.034-18.596S65.5 25.735 60 21.404a23.55 23.55 0 0114.617-5.056c13.062 0 23.65 10.589 23.65 23.652z" fill="#F79E1B"/><path fill-rule="evenodd" clip-rule="evenodd" d="M50.966 40c0-7.545 3.533-14.265 9.034-18.596a23.55 23.55 0 00-14.617-5.056c-13.062 0-23.65 10.589-23.65 23.652s10.588 23.652 23.65 23.652A23.55 23.55 0 0060 58.596C54.499 54.265 50.966 47.545 50.966 40z" fill="#EB001B"/></svg>