<svg width="120" height="80" fill="none" xmlns="http://www.w3.org/2000/svg"><path fill-rule="evenodd" clip-rule="evenodd" d="M76.528 14.179c-2.786.086-6.193 2.28-6.813 4.986l-9.417 41.672c-.62 2.731 1.068 4.953 3.783 4.994H85c2.674-.132 5.272-2.301 5.882-4.976l9.417-41.672c.631-2.759-1.098-5-3.859-5l-19.912-.004z" fill="#01798A"/><path fill-rule="evenodd" clip-rule="evenodd" d="M60.298 60.837l9.417-41.672c.62-2.705 4.027-4.9 6.763-4.983l-7.917-.006-14.264-.002c-2.743.056-6.195 2.265-6.815 4.991l-9.42 41.672c-.622 2.731 1.068 4.953 3.782 4.994h22.237c-2.715-.04-4.403-2.263-3.783-4.994z" fill="#024381"/><path fill-rule="evenodd" clip-rule="evenodd" d="M38.063 60.837l9.419-41.672c.62-2.726 4.072-4.935 6.815-4.991l-18.273-.005c-2.759 0-6.295 2.235-6.926 4.996l-9.42 41.672c-.056.254-.088.504-.107.747v.774c.184 1.99 1.704 3.44 3.89 3.473h18.383c-2.714-.04-4.404-2.263-3.781-4.994z" fill="#DD0228"/><path fill-rule="evenodd" clip-rule="evenodd" d="M54.682 44.538h.346c.317 0 .531-.106.631-.317l.899-1.345h2.406l-.501.884h2.885l-.366 1.356h-3.433c-.396.595-.883.874-1.468.841h-1.788l.389-1.419zm-.395 1.943h6.321l-.403 1.472h-2.542l-.388 1.422h2.474l-.403 1.472h-2.474l-.575 2.1c-.142.351.045.509.559.473h2.016l-.374 1.368h-3.87c-.734 0-.986-.42-.756-1.261l.735-2.68h-1.581l.401-1.472h1.582l.387-1.422h-1.511l.402-1.472zm10.09-3.615l-.1.861s1.192-.895 2.275-.895h4.002l-1.53 5.54c-.127.634-.672.95-1.633.95h-4.536l-1.062 3.89c-.061.208.025.315.254.315h.893l-.328 1.208h-2.27c-.87 0-1.233-.262-1.089-.788l3.002-11.081h2.121zm3.388 1.566h-3.572l-.427 1.495s.595-.43 1.589-.445c.991-.016 2.123 0 2.123 0l.287-1.05zM66.471 47.9c.264.036.412-.069.43-.316l.218-.788h-3.577l-.3 1.104h3.229zm-2.413 1.79h2.062l-.038.892h.549c.277 0 .415-.089.415-.264l.162-.577h1.714l-.229.841c-.194.702-.707 1.068-1.54 1.104h-1.099l-.005 1.526c-.02.244.2.368.656.368h1.032l-.333 1.208h-2.476c-.694.033-1.035-.297-1.028-1l.158-4.098zM72.822 44.6l.478-1.684h2.418l-.105.618s1.236-.618 2.126-.618h2.99l-.476 1.684h-.47l-2.255 7.938h.47l-.448 1.576h-.47l-.196.684h-2.341l.195-.684H70.12l.45-1.576h.463L73.29 44.6h-.467zm2.608 0l-.615 2.148s1.053-.404 1.96-.518c.2-.75.463-1.63.463-1.63H75.43zm-.9 3.155l-.617 2.25s1.166-.574 1.967-.623c.231-.87.463-1.627.463-1.627H74.53zm.453 4.783l.462-1.632h-1.804l-.466 1.632h1.808zm5.847-9.726h2.273l.097.839c-.016.213.111.316.38.316h.403l-.407 1.42h-1.67c-.638.034-.967-.21-.997-.737l-.079-1.838zm6.697 3.049l-.432 1.526H84.75l-.401 1.418h2.341l-.434 1.523h-2.609l-.59.893h1.277l.295 1.787c.035.178.193.265.462.265h.397l-.417 1.472h-1.403c-.728.036-1.104-.209-1.134-.735l-.339-1.632-1.161 1.736c-.275.491-.697.72-1.266.684h-2.144l.417-1.472h.669c.275 0 .503-.122.71-.369l1.817-2.629h-2.344l.434-1.523h2.543l.404-1.419H79.73l.435-1.525h7.363zM89.855 40.918c-.762 1.622-1.49 2.568-1.916 3.008-.428.435-1.274 1.447-3.313 1.37l.175-1.238c1.716-.529 2.644-2.912 3.173-3.967l-.63-7.77 1.327-.018h1.113l.12 4.875 2.087-4.875h2.113l-4.249 8.615zM83.947 32.89l-.84.578c-.876-.687-1.677-1.111-3.222-.395-2.106.977-3.865 8.465 1.931 5.999l.331.391 2.28.059 1.498-6.804-1.978.172zm-1.297 3.72c-.366 1.081-1.184 1.796-1.825 1.592-.64-.198-.87-1.24-.498-2.324.366-1.083 1.19-1.795 1.825-1.592.64.199.872 1.241.498 2.324zM70.763 27.825h5.196c1 0 1.772.227 2.303.672.53.45.794 1.096.794 1.937v.026c0 .16-.01.34-.026.536a8.015 8.015 0 01-.101.593c-.23 1.113-.76 2.008-1.582 2.687-.824.676-1.8 1.017-2.923 1.017h-2.787l-.862 4.229h-2.413l2.4-11.697zm1.298 5.434h2.312c.602 0 1.08-.14 1.428-.417.346-.28.575-.707.702-1.286.02-.107.033-.204.048-.293.008-.084.018-.168.018-.249 0-.415-.147-.715-.442-.903-.295-.19-.758-.282-1.399-.282h-1.962l-.705 3.43zM61.915 32.3h1.79l-.203 1.043.253-.297c.58-.62 1.287-.928 2.116-.928.753 0 1.296.218 1.634.658.334.44.43 1.048.267 1.828l-.98 4.918H64.95l.89-4.457c.092-.46.066-.804-.073-1.025-.145-.221-.407-.33-.79-.33-.474 0-.87.147-1.199.44-.325.294-.541.703-.642 1.225l-.824 4.147h-1.84l1.443-7.221zM53.445 38.97c-.519-.496-.78-1.164-.783-2.014 0-.145.009-.31.028-.49a5.37 5.37 0 01.078-.527c.235-1.172.736-2.103 1.507-2.79.77-.688 1.7-1.034 2.788-1.034.891 0 1.598.25 2.115.747.518.502.777 1.178.777 2.037 0 .148-.011.318-.03.501-.023.186-.051.364-.083.54-.23 1.154-.73 2.074-1.501 2.748-.772.679-1.699 1.017-2.78 1.017-.894 0-1.598-.244-2.116-.735zm3.78-1.429c.35-.379.6-.954.752-1.719a4.23 4.23 0 00.056-.369c.012-.122.018-.236.018-.34 0-.445-.114-.79-.341-1.035-.226-.247-.548-.369-.963-.369-.55 0-.997.193-1.348.58-.353.386-.604.971-.761 1.75-.022.119-.04.238-.056.355-.013.12-.017.232-.014.333 0 .443.113.784.34 1.025.227.242.547.361.968.361.552 0 .999-.19 1.349-.572zM49.706 32.303h1.984l-1.554 7.216h-1.979l1.55-7.216zm.625-2.629h2l-.373 1.752h-2l.373-1.752zM41.404 32.3h1.789l-.205 1.043.257-.297c.58-.62 1.284-.928 2.115-.928.753 0 1.296.218 1.636.658.336.44.427 1.048.269 1.828l-.986 4.918h-1.838l.89-4.457c.092-.46.066-.804-.075-1.025-.14-.221-.407-.33-.792-.33-.473 0-.87.147-1.195.44-.325.294-.54.703-.645 1.225l-.82 4.147h-1.842l1.442-7.221zM39.072 35.484c-.28 1.37-.928 2.423-1.934 3.17-.996.736-2.281 1.104-3.855 1.104-1.48 0-2.567-.376-3.26-1.131-.48-.537-.719-1.218-.719-2.042 0-.34.041-.707.122-1.101l1.677-8.086h2.532l-1.654 7.994c-.05.222-.07.428-.068.613-.003.41.099.745.305 1.007.3.39.787.582 1.464.582.78 0 1.421-.19 1.92-.574.498-.382.823-.923.97-1.628l1.658-7.994h2.52l-1.678 8.086z" fill="#fff"/></svg>