<svg width="120" height="80" fill="none" xmlns="http://www.w3.org/2000/svg"><path fill-rule="evenodd" clip-rule="evenodd" d="M86.667 44.938l3.657-9.876 2.057 9.876h-5.714zm14.285 7.9l-5.143-25.675h-7.07c-2.386 0-2.967 1.913-2.967 1.913L76.19 52.837h6.697l1.34-3.813h8.168l.753 3.813h7.804zM77.187 33.571l.908-5.327s-2.805-1.081-5.73-1.081c-3.162 0-10.67 1.4-10.67 8.21 0 6.41 8.812 6.49 8.812 9.854 0 3.364-7.904 2.763-10.512.64l-.947 5.57s2.844 1.4 7.192 1.4c4.347 0 10.907-2.283 10.907-8.492 0-6.449-8.892-7.049-8.892-9.853 0-2.804 6.205-2.444 8.932-.92zM54.652 52.837h-7.033l4.395-25.675h7.034l-4.396 25.675zM42.311 27.163l-6.39 17.658-.755-3.802h.001l-2.256-11.544s-.272-2.313-3.179-2.313H19.171l-.123.435s3.23.67 7.009 2.936l5.822 22.304h6.983l10.662-25.675H42.31z" fill="#182E66"/><path fill-rule="evenodd" clip-rule="evenodd" d="M34.286 40.987L32.153 29.47s-.257-2.306-3.005-2.306h-9.984l-.116.433s4.799 1.047 9.402 4.97c4.4 3.748 5.836 8.421 5.836 8.421z" fill="#182E66"/></svg>